STARTFONT 2.1
FONT -knife911-5x7PixelChineseFont-Regular-R-Normal--8-80-75-75-C-60-ISO10646-1
SIZE 8 75 75
FONTBOUNDINGBOX 6 8 0 -1
STARTPROPERTIES 19
FONTNAME_REGISTRY ""
FOUNDRY "knife911"
FAMILY_NAME "5x7-Pixel-Chinese-Font"
WEIGHT_NAME "Regular"
SLANT "R"
SETWIDTH_NAME "Normal"
ADD_STYLE_NAME ""
PIXEL_SIZE 8
POINT_SIZE 80
RESOLUTION_X 75
RESOLUTION_Y 75
SPACING "C"
AVERAGE_WIDTH 60
CHARSET_REGISTRY "ISO10646"
CHARSET_ENCODING "1"
DEFAULT_CHAR 3000
FONT_DESCENT 1
FONT_ASCENT 7
COPYRIGHT "Copyright (C) 2023 Han,zhen"
ENDPROPERTIES

CHARS 847

STARTCHAR uni4E00
ENCODING 19968
SWIDTH 750 0
DWIDTH 6 0
BBX 5 7 0 0
BITMAP
00
00
00
F8
00
00
00
ENDCHAR

STARTCHAR uni4E01
ENCODING 19969
SWIDTH 750 0
DWIDTH 6 0
BBX 5 7 0 0
BITMAP
F8
20
20
20
20
20
60
ENDCHAR

STARTCHAR uni4E03
ENCODING 19971
SWIDTH 750 0
DWIDTH 6 0
BBX 5 7 0 0
BITMAP
40
40
58
E0
40
48
38
ENDCHAR

STARTCHAR uni4E07
ENCODING 19975
SWIDTH 750 0
DWIDTH 6 0
BBX 5 7 0 0
BITMAP
F8
40
70
48
48
48
98
ENDCHAR

STARTCHAR uni4E08
ENCODING 19976
SWIDTH 750 0
DWIDTH 6 0
BBX 5 7 0 0
BITMAP
10
F8
10
50
20
50
88
ENDCHAR

STARTCHAR uni4E09
ENCODING 19977
SWIDTH 750 0
DWIDTH 6 0
BBX 5 7 0 0
BITMAP
70
00
00
70
00
00
F8
ENDCHAR

STARTCHAR uni4E0A
ENCODING 19978
SWIDTH 750 0
DWIDTH 6 0
BBX 5 7 0 0
BITMAP
20
20
38
20
20
20
F8
ENDCHAR

STARTCHAR uni4E0B
ENCODING 19979
SWIDTH 750 0
DWIDTH 6 0
BBX 5 7 0 0
BITMAP
F8
20
30
28
20
20
20
ENDCHAR

STARTCHAR uni4E0D
ENCODING 19981
SWIDTH 750 0
DWIDTH 6 0
BBX 5 7 0 0
BITMAP
F8
10
20
70
A8
20
20
ENDCHAR

STARTCHAR uni4E0E
ENCODING 19982
SWIDTH 750 0
DWIDTH 6 0
BBX 5 7 0 0
BITMAP
40
78
40
78
08
E8
18
ENDCHAR

STARTCHAR uni4E10
ENCODING 19984
SWIDTH 750 0
DWIDTH 6 0
BBX 5 7 0 0
BITMAP
F8
20
B8
A0
F8
08
18
ENDCHAR

STARTCHAR uni4E11
ENCODING 19985
SWIDTH 750 0
DWIDTH 6 0
BBX 5 7 0 0
BITMAP
F0
50
50
F0
50
50
F8
ENDCHAR

STARTCHAR uni4E13
ENCODING 19987
SWIDTH 750 0
DWIDTH 6 0
BBX 5 7 0 0
BITMAP
20
70
20
F8
40
70
10
ENDCHAR

STARTCHAR uni4E14
ENCODING 19988
SWIDTH 750 0
DWIDTH 6 0
BBX 5 7 0 0
BITMAP
70
50
70
50
70
50
F8
ENDCHAR

STARTCHAR uni4E16
ENCODING 19990
SWIDTH 750 0
DWIDTH 6 0
BBX 5 7 0 0
BITMAP
A8
A8
F8
A8
B8
80
F8
ENDCHAR

STARTCHAR uni4E18
ENCODING 19992
SWIDTH 750 0
DWIDTH 6 0
BBX 5 7 0 0
BITMAP
10
60
40
78
50
50
F8
ENDCHAR

STARTCHAR uni4E19
ENCODING 19993
SWIDTH 750 0
DWIDTH 6 0
BBX 5 7 0 0
BITMAP
F8
20
F8
A8
D8
88
98
ENDCHAR

STARTCHAR uni4E1A
ENCODING 19994
SWIDTH 750 0
DWIDTH 6 0
BBX 5 7 0 0
BITMAP
50
50
D8
D8
50
50
F8
ENDCHAR

STARTCHAR uni4E1B
ENCODING 19995
SWIDTH 750 0
DWIDTH 6 0
BBX 5 7 0 0
BITMAP
50
50
50
A8
A8
00
F8
ENDCHAR

STARTCHAR uni4E1C
ENCODING 19996
SWIDTH 750 0
DWIDTH 6 0
BBX 5 7 0 0
BITMAP
40
F8
60
F8
70
A8
60
ENDCHAR

STARTCHAR uni4E1D
ENCODING 19997
SWIDTH 750 0
DWIDTH 6 0
BBX 5 7 0 0
BITMAP
28
50
A8
50
F8
00
F8
ENDCHAR

STARTCHAR uni4E24
ENCODING 20004
SWIDTH 750 0
DWIDTH 6 0
BBX 5 7 0 0
BITMAP
F8
50
F8
D8
A8
D8
88
ENDCHAR

STARTCHAR uni4E2A
ENCODING 20010
SWIDTH 750 0
DWIDTH 6 0
BBX 5 7 0 0
BITMAP
20
50
A8
20
20
20
20
ENDCHAR

STARTCHAR uni4E2B
ENCODING 20011
SWIDTH 750 0
DWIDTH 6 0
BBX 5 7 0 0
BITMAP
88
50
20
20
20
20
20
ENDCHAR

STARTCHAR uni4E2D
ENCODING 20013
SWIDTH 750 0
DWIDTH 6 0
BBX 5 7 0 0
BITMAP
20
F8
A8
A8
F8
20
20
ENDCHAR

STARTCHAR uni4E30
ENCODING 20016
SWIDTH 750 0
DWIDTH 6 0
BBX 5 7 0 0
BITMAP
20
F8
20
70
20
F8
20
ENDCHAR

STARTCHAR uni4E38
ENCODING 20024
SWIDTH 750 0
DWIDTH 6 0
BBX 5 7 0 0
BITMAP
40
F0
50
D0
70
50
98
ENDCHAR

STARTCHAR uni4E39
ENCODING 20025
SWIDTH 750 0
DWIDTH 6 0
BBX 5 7 0 0
BITMAP
78
48
68
F8
48
48
98
ENDCHAR

STARTCHAR uni4E3A
ENCODING 20026
SWIDTH 750 0
DWIDTH 6 0
BBX 5 7 0 0
BITMAP
20
60
F8
28
58
48
98
ENDCHAR

STARTCHAR uni4E3B
ENCODING 20027
SWIDTH 750 0
DWIDTH 6 0
BBX 5 7 0 0
BITMAP
40
20
F8
20
70
20
F8
ENDCHAR

STARTCHAR uni4E3E
ENCODING 20030
SWIDTH 750 0
DWIDTH 6 0
BBX 5 7 0 0
BITMAP
A8
F8
50
A8
70
F8
20
ENDCHAR

STARTCHAR uni4E43
ENCODING 20035
SWIDTH 750 0
DWIDTH 6 0
BBX 5 7 0 0
BITMAP
F0
50
58
48
48
48
98
ENDCHAR

STARTCHAR uni4E45
ENCODING 20037
SWIDTH 750 0
DWIDTH 6 0
BBX 5 7 0 0
BITMAP
40
70
50
90
20
50
88
ENDCHAR

STARTCHAR uni4E48
ENCODING 20040
SWIDTH 750 0
DWIDTH 6 0
BBX 5 7 0 0
BITMAP
40
50
90
20
40
90
F8
ENDCHAR

STARTCHAR uni4E49
ENCODING 20041
SWIDTH 750 0
DWIDTH 6 0
BBX 5 7 0 0
BITMAP
40
28
88
50
20
50
88
ENDCHAR

STARTCHAR uni4E4B
ENCODING 20043
SWIDTH 750 0
DWIDTH 6 0
BBX 5 7 0 0
BITMAP
20
F8
08
10
20
40
B8
ENDCHAR

STARTCHAR uni4E4C
ENCODING 20044
SWIDTH 750 0
DWIDTH 6 0
BBX 5 7 0 0
BITMAP
40
F0
90
F8
08
E8
18
ENDCHAR

STARTCHAR uni4E4D
ENCODING 20045
SWIDTH 750 0
DWIDTH 6 0
BBX 5 7 0 0
BITMAP
40
78
A0
38
20
38
20
ENDCHAR

STARTCHAR uni4E4E
ENCODING 20046
SWIDTH 750 0
DWIDTH 6 0
BBX 5 7 0 0
BITMAP
18
E0
A8
20
F8
20
60
ENDCHAR

STARTCHAR uni4E4F
ENCODING 20047
SWIDTH 750 0
DWIDTH 6 0
BBX 5 7 0 0
BITMAP
10
60
F8
10
20
C0
B8
ENDCHAR

STARTCHAR uni4E50
ENCODING 20048
SWIDTH 750 0
DWIDTH 6 0
BBX 5 7 0 0
BITMAP
70
A0
A0
F8
20
A8
60
ENDCHAR

STARTCHAR uni4E59
ENCODING 20057
SWIDTH 750 0
DWIDTH 6 0
BBX 5 7 0 0
BITMAP
F0
10
20
40
80
88
78
ENDCHAR

STARTCHAR uni4E5D
ENCODING 20061
SWIDTH 750 0
DWIDTH 6 0
BBX 5 7 0 0
BITMAP
40
F0
50
50
50
50
98
ENDCHAR

STARTCHAR uni4E5E
ENCODING 20062
SWIDTH 750 0
DWIDTH 6 0
BBX 5 7 0 0
BITMAP
40
78
80
70
20
48
38
ENDCHAR

STARTCHAR uni4E5F
ENCODING 20063
SWIDTH 750 0
DWIDTH 6 0
BBX 5 7 0 0
BITMAP
20
60
78
E8
70
48
38
ENDCHAR

STARTCHAR uni4E60
ENCODING 20064
SWIDTH 750 0
DWIDTH 6 0
BBX 5 7 0 0
BITMAP
F8
48
28
08
28
C8
18
ENDCHAR

STARTCHAR uni4E61
ENCODING 20065
SWIDTH 750 0
DWIDTH 6 0
BBX 5 7 0 0
BITMAP
20
40
D0
20
68
10
E0
ENDCHAR

STARTCHAR uni4E66
ENCODING 20070
SWIDTH 750 0
DWIDTH 6 0
BBX 5 7 0 0
BITMAP
48
F0
50
F8
48
58
40
ENDCHAR

STARTCHAR uni4E71
ENCODING 20081
SWIDTH 750 0
DWIDTH 6 0
BBX 5 7 0 0
BITMAP
F0
50
F0
50
F0
B0
F8
ENDCHAR

STARTCHAR uni4E86
ENCODING 20102
SWIDTH 750 0
DWIDTH 6 0
BBX 5 7 0 0
BITMAP
F8
08
10
20
20
20
60
ENDCHAR

STARTCHAR uni4E88
ENCODING 20104
SWIDTH 750 0
DWIDTH 6 0
BBX 5 7 0 0
BITMAP
F0
50
20
F8
28
20
60
ENDCHAR

STARTCHAR uni4E89
ENCODING 20105
SWIDTH 750 0
DWIDTH 6 0
BBX 5 7 0 0
BITMAP
30
50
00
F0
38
F0
20
ENDCHAR

STARTCHAR uni4E8B
ENCODING 20107
SWIDTH 750 0
DWIDTH 6 0
BBX 5 7 0 0
BITMAP
20
F8
70
F8
28
F8
60
ENDCHAR

STARTCHAR uni4E8C
ENCODING 20108
SWIDTH 750 0
DWIDTH 6 0
BBX 5 7 0 0
BITMAP
00
70
00
00
00
F8
00
ENDCHAR

STARTCHAR uni4E8E
ENCODING 20110
SWIDTH 750 0
DWIDTH 6 0
BBX 5 7 0 0
BITMAP
70
20
20
F8
20
20
60
ENDCHAR

STARTCHAR uni4E8F
ENCODING 20111
SWIDTH 750 0
DWIDTH 6 0
BBX 5 7 0 0
BITMAP
70
00
F8
40
70
10
30
ENDCHAR

STARTCHAR uni4E91
ENCODING 20113
SWIDTH 750 0
DWIDTH 6 0
BBX 5 7 0 0
BITMAP
70
00
00
F8
20
50
E8
ENDCHAR

STARTCHAR uni4E92
ENCODING 20114
SWIDTH 750 0
DWIDTH 6 0
BBX 5 7 0 0
BITMAP
F8
40
78
88
F0
10
F8
ENDCHAR

STARTCHAR uni4E94
ENCODING 20116
SWIDTH 750 0
DWIDTH 6 0
BBX 5 7 0 0
BITMAP
F0
20
20
F0
50
50
F8
ENDCHAR

STARTCHAR uni4E95
ENCODING 20117
SWIDTH 750 0
DWIDTH 6 0
BBX 5 7 0 0
BITMAP
50
F8
50
50
F8
50
90
ENDCHAR

STARTCHAR uni4E9A
ENCODING 20122
SWIDTH 750 0
DWIDTH 6 0
BBX 5 7 0 0
BITMAP
F8
50
50
D8
50
50
F8
ENDCHAR

STARTCHAR uni4E9B
ENCODING 20123
SWIDTH 750 0
DWIDTH 6 0
BBX 5 7 0 0
BITMAP
50
F8
D0
F8
70
00
F8
ENDCHAR

STARTCHAR uni4EA1
ENCODING 20129
SWIDTH 750 0
DWIDTH 6 0
BBX 5 7 0 0
BITMAP
20
F8
40
40
40
40
38
ENDCHAR

STARTCHAR uni4EA2
ENCODING 20130
SWIDTH 750 0
DWIDTH 6 0
BBX 5 7 0 0
BITMAP
20
F8
00
70
50
50
98
ENDCHAR

STARTCHAR uni4EA4
ENCODING 20132
SWIDTH 750 0
DWIDTH 6 0
BBX 5 7 0 0
BITMAP
20
F8
50
88
50
20
D8
ENDCHAR

STARTCHAR uni4EB2
ENCODING 20146
SWIDTH 750 0
DWIDTH 6 0
BBX 5 7 0 0
BITMAP
20
F8
50
F8
20
70
A8
ENDCHAR

STARTCHAR uni4EBA
ENCODING 20154
SWIDTH 750 0
DWIDTH 6 0
BBX 5 7 0 0
BITMAP
20
20
20
20
50
50
88
ENDCHAR

STARTCHAR uni4EBF
ENCODING 20159
SWIDTH 750 0
DWIDTH 6 0
BBX 5 7 0 0
BITMAP
78
48
D0
50
60
68
58
ENDCHAR

STARTCHAR uni4EC0
ENCODING 20160
SWIDTH 750 0
DWIDTH 6 0
BBX 5 7 0 0
BITMAP
50
50
78
D0
50
50
50
ENDCHAR

STARTCHAR uni4EC1
ENCODING 20161
SWIDTH 750 0
DWIDTH 6 0
BBX 5 7 0 0
BITMAP
40
78
C0
40
40
78
40
ENDCHAR

STARTCHAR uni4EC5
ENCODING 20165
SWIDTH 750 0
DWIDTH 6 0
BBX 5 7 0 0
BITMAP
58
88
A8
90
90
A8
A8
ENDCHAR

STARTCHAR uni4EC6
ENCODING 20166
SWIDTH 750 0
DWIDTH 6 0
BBX 5 7 0 0
BITMAP
50
50
D0
D8
50
50
50
ENDCHAR

STARTCHAR uni4EC7
ENCODING 20167
SWIDTH 750 0
DWIDTH 6 0
BBX 5 7 0 0
BITMAP
60
A0
F0
B0
B0
B0
D8
ENDCHAR

STARTCHAR uni4ECA
ENCODING 20170
SWIDTH 750 0
DWIDTH 6 0
BBX 5 7 0 0
BITMAP
20
50
A8
00
F8
10
20
ENDCHAR

STARTCHAR uni4ECB
ENCODING 20171
SWIDTH 750 0
DWIDTH 6 0
BBX 5 7 0 0
BITMAP
20
50
88
50
50
50
90
ENDCHAR

STARTCHAR uni4ECD
ENCODING 20173
SWIDTH 750 0
DWIDTH 6 0
BBX 5 7 0 0
BITMAP
70
50
D8
C8
48
48
58
ENDCHAR

STARTCHAR uni4ECE
ENCODING 20174
SWIDTH 750 0
DWIDTH 6 0
BBX 5 7 0 0
BITMAP
50
50
50
50
A8
A8
A8
ENDCHAR

STARTCHAR uni4ED1
ENCODING 20177
SWIDTH 750 0
DWIDTH 6 0
BBX 5 7 0 0
BITMAP
20
50
88
50
60
48
38
ENDCHAR

STARTCHAR uni4ED3
ENCODING 20179
SWIDTH 750 0
DWIDTH 6 0
BBX 5 7 0 0
BITMAP
20
50
88
70
50
48
38
ENDCHAR

STARTCHAR uni4ED4
ENCODING 20180
SWIDTH 750 0
DWIDTH 6 0
BBX 5 7 0 0
BITMAP
78
48
D0
F8
48
48
50
ENDCHAR

STARTCHAR uni4ED6
ENCODING 20182
SWIDTH 750 0
DWIDTH 6 0
BBX 5 7 0 0
BITMAP
60
A0
B8
E8
A8
A0
B8
ENDCHAR

STARTCHAR uni4ED7
ENCODING 20183
SWIDTH 750 0
DWIDTH 6 0
BBX 5 7 0 0
BITMAP
48
78
C8
68
50
50
68
ENDCHAR

STARTCHAR uni4ED8
ENCODING 20184
SWIDTH 750 0
DWIDTH 6 0
BBX 5 7 0 0
BITMAP
48
78
C8
68
58
48
58
ENDCHAR

STARTCHAR uni4ED9
ENCODING 20185
SWIDTH 750 0
DWIDTH 6 0
BBX 5 7 0 0
BITMAP
50
50
D8
D8
58
58
78
ENDCHAR

STARTCHAR uni4EE3
ENCODING 20195
SWIDTH 750 0
DWIDTH 6 0
BBX 5 7 0 0
BITMAP
58
D0
78
50
50
50
48
ENDCHAR

STARTCHAR uni4EE4
ENCODING 20196
SWIDTH 750 0
DWIDTH 6 0
BBX 5 7 0 0
BITMAP
20
50
A8
F8
08
50
20
ENDCHAR

STARTCHAR uni4EE5
ENCODING 20197
SWIDTH 750 0
DWIDTH 6 0
BBX 5 7 0 0
BITMAP
10
90
D0
B0
D0
90
68
ENDCHAR

STARTCHAR uni4EEA
ENCODING 20202
SWIDTH 750 0
DWIDTH 6 0
BBX 5 7 0 0
BITMAP
68
D8
E8
68
50
50
68
ENDCHAR

STARTCHAR uni4EEC
ENCODING 20204
SWIDTH 750 0
DWIDTH 6 0
BBX 5 7 0 0
BITMAP
58
88
A8
A8
A8
A8
A8
ENDCHAR

STARTCHAR uni4EF6
ENCODING 20214
SWIDTH 750 0
DWIDTH 6 0
BBX 5 7 0 0
BITMAP
50
70
F8
50
78
50
50
ENDCHAR

STARTCHAR uni4EFB
ENCODING 20219
SWIDTH 750 0
DWIDTH 6 0
BBX 5 7 0 0
BITMAP
48
70
D0
78
50
50
78
ENDCHAR

STARTCHAR uni4EFD
ENCODING 20221
SWIDTH 750 0
DWIDTH 6 0
BBX 5 7 0 0
BITMAP
50
68
C0
78
58
58
68
ENDCHAR

STARTCHAR uni4F17
ENCODING 20247
SWIDTH 750 0
DWIDTH 6 0
BBX 5 7 0 0
BITMAP
20
20
50
88
50
50
A8
ENDCHAR

STARTCHAR uni4F19
ENCODING 20249
SWIDTH 750 0
DWIDTH 6 0
BBX 5 7 0 0
BITMAP
50
50
D8
70
50
68
68
ENDCHAR

STARTCHAR uni4F1A
ENCODING 20250
SWIDTH 750 0
DWIDTH 6 0
BBX 5 7 0 0
BITMAP
20
50
F8
00
F8
50
E8
ENDCHAR

STARTCHAR uni4F1F
ENCODING 20255
SWIDTH 750 0
DWIDTH 6 0
BBX 5 7 0 0
BITMAP
50
78
D0
78
58
58
50
ENDCHAR

STARTCHAR uni4F20
ENCODING 20256
SWIDTH 750 0
DWIDTH 6 0
BBX 5 7 0 0
BITMAP
50
78
D0
78
50
48
50
ENDCHAR

STARTCHAR uni4F24
ENCODING 20260
SWIDTH 750 0
DWIDTH 6 0
BBX 5 7 0 0
BITMAP
60
78
D0
78
58
58
68
ENDCHAR

STARTCHAR uni4F3C
ENCODING 20284
SWIDTH 750 0
DWIDTH 6 0
BBX 5 7 0 0
BITMAP
50
B0
D0
F0
D0
A8
C8
ENDCHAR

STARTCHAR uni4F46
ENCODING 20294
SWIDTH 750 0
DWIDTH 6 0
BBX 5 7 0 0
BITMAP
58
68
F8
68
78
40
78
ENDCHAR

STARTCHAR uni4F4D
ENCODING 20301
SWIDTH 750 0
DWIDTH 6 0
BBX 5 7 0 0
BITMAP
50
78
C0
68
68
50
78
ENDCHAR

STARTCHAR uni4F4E
ENCODING 20302
SWIDTH 750 0
DWIDTH 6 0
BBX 5 7 0 0
BITMAP
48
70
D0
78
50
48
68
ENDCHAR

STARTCHAR uni4F4F
ENCODING 20303
SWIDTH 750 0
DWIDTH 6 0
BBX 5 7 0 0
BITMAP
50
78
D0
78
50
50
78
ENDCHAR

STARTCHAR uni4F53
ENCODING 20307
SWIDTH 750 0
DWIDTH 6 0
BBX 5 7 0 0
BITMAP
50
78
D0
68
50
78
50
ENDCHAR

STARTCHAR uni4F55
ENCODING 20309
SWIDTH 750 0
DWIDTH 6 0
BBX 5 7 0 0
BITMAP
38
48
F8
68
78
48
58
ENDCHAR

STARTCHAR uni4F5C
ENCODING 20316
SWIDTH 750 0
DWIDTH 6 0
BBX 5 7 0 0
BITMAP
50
D8
70
58
58
50
50
ENDCHAR

STARTCHAR uni4F60
ENCODING 20320
SWIDTH 750 0
DWIDTH 6 0
BBX 5 7 0 0
BITMAP
60
B8
C8
90
B8
D8
B0
ENDCHAR

STARTCHAR uni4F7F
ENCODING 20351
SWIDTH 750 0
DWIDTH 6 0
BBX 5 7 0 0
BITMAP
50
B8
B8
90
B0
90
A8
ENDCHAR

STARTCHAR uni4F9D
ENCODING 20381
SWIDTH 750 0
DWIDTH 6 0
BBX 5 7 0 0
BITMAP
50
78
D0
68
70
70
68
ENDCHAR

STARTCHAR uni4FBF
ENCODING 20415
SWIDTH 750 0
DWIDTH 6 0
BBX 5 7 0 0
BITMAP
78
50
E8
78
70
50
68
ENDCHAR

STARTCHAR uni4FDD
ENCODING 20445
SWIDTH 750 0
DWIDTH 6 0
BBX 5 7 0 0
BITMAP
78
68
D0
78
50
78
50
ENDCHAR

STARTCHAR uni4FE1
ENCODING 20449
SWIDTH 750 0
DWIDTH 6 0
BBX 5 7 0 0
BITMAP
50
78
C0
58
40
58
58
ENDCHAR

STARTCHAR uni4FEE
ENCODING 20462
SWIDTH 750 0
DWIDTH 6 0
BBX 5 7 0 0
BITMAP
60
78
D0
68
70
68
50
ENDCHAR

STARTCHAR uni5012
ENCODING 20498
SWIDTH 750 0
DWIDTH 6 0
BBX 5 7 0 0
BITMAP
48
78
D8
68
58
78
48
ENDCHAR

STARTCHAR uni5019
ENCODING 20505
SWIDTH 750 0
DWIDTH 6 0
BBX 5 7 0 0
BITMAP
58
48
F8
70
78
50
68
ENDCHAR

STARTCHAR uni505A
ENCODING 20570
SWIDTH 750 0
DWIDTH 6 0
BBX 5 7 0 0
BITMAP
50
78
D8
78
68
70
48
ENDCHAR

STARTCHAR uni5065
ENCODING 20581
SWIDTH 750 0
DWIDTH 6 0
BBX 5 7 0 0
BITMAP
50
78
D8
78
58
70
78
ENDCHAR

STARTCHAR uni50CF
ENCODING 20687
SWIDTH 750 0
DWIDTH 6 0
BBX 5 7 0 0
BITMAP
58
70
F8
68
50
68
50
ENDCHAR

STARTCHAR uni513F
ENCODING 20799
SWIDTH 750 0
DWIDTH 6 0
BBX 5 7 0 0
BITMAP
50
50
50
50
50
50
98
ENDCHAR

STARTCHAR uni5141
ENCODING 20801
SWIDTH 750 0
DWIDTH 6 0
BBX 5 7 0 0
BITMAP
20
48
F8
50
50
50
98
ENDCHAR

STARTCHAR uni5143
ENCODING 20803
SWIDTH 750 0
DWIDTH 6 0
BBX 5 7 0 0
BITMAP
70
00
F8
50
50
50
98
ENDCHAR

STARTCHAR uni5144
ENCODING 20804
SWIDTH 750 0
DWIDTH 6 0
BBX 5 7 0 0
BITMAP
F8
88
88
F8
50
50
98
ENDCHAR

STARTCHAR uni5148
ENCODING 20808
SWIDTH 750 0
DWIDTH 6 0
BBX 5 7 0 0
BITMAP
60
70
A0
F8
50
50
98
ENDCHAR

STARTCHAR uni5149
ENCODING 20809
SWIDTH 750 0
DWIDTH 6 0
BBX 5 7 0 0
BITMAP
20
A8
20
F8
50
50
98
ENDCHAR

STARTCHAR uni5165
ENCODING 20837
SWIDTH 750 0
DWIDTH 6 0
BBX 5 7 0 0
BITMAP
60
20
20
20
50
50
88
ENDCHAR

STARTCHAR uni5168
ENCODING 20840
SWIDTH 750 0
DWIDTH 6 0
BBX 5 7 0 0
BITMAP
20
50
F8
20
70
20
F8
ENDCHAR

STARTCHAR uni516B
ENCODING 20843
SWIDTH 750 0
DWIDTH 6 0
BBX 5 7 0 0
BITMAP
50
50
50
50
50
88
88
ENDCHAR

STARTCHAR uni516C
ENCODING 20844
SWIDTH 750 0
DWIDTH 6 0
BBX 5 7 0 0
BITMAP
50
50
88
20
20
50
E8
ENDCHAR

STARTCHAR uni516D
ENCODING 20845
SWIDTH 750 0
DWIDTH 6 0
BBX 5 7 0 0
BITMAP
40
20
F8
00
50
48
88
ENDCHAR

STARTCHAR uni5170
ENCODING 20848
SWIDTH 750 0
DWIDTH 6 0
BBX 5 7 0 0
BITMAP
50
F8
00
70
00
00
F8
ENDCHAR

STARTCHAR uni5171
ENCODING 20849
SWIDTH 750 0
DWIDTH 6 0
BBX 5 7 0 0
BITMAP
50
F8
50
50
F8
00
88
ENDCHAR

STARTCHAR uni5173
ENCODING 20851
SWIDTH 750 0
DWIDTH 6 0
BBX 5 7 0 0
BITMAP
50
70
20
F8
20
50
88
ENDCHAR

STARTCHAR uni5175
ENCODING 20853
SWIDTH 750 0
DWIDTH 6 0
BBX 5 7 0 0
BITMAP
10
60
78
50
F8
00
88
ENDCHAR

STARTCHAR uni5176
ENCODING 20854
SWIDTH 750 0
DWIDTH 6 0
BBX 5 7 0 0
BITMAP
50
F8
70
50
F8
50
88
ENDCHAR

STARTCHAR uni5177
ENCODING 20855
SWIDTH 750 0
DWIDTH 6 0
BBX 5 7 0 0
BITMAP
70
70
70
50
F8
40
88
ENDCHAR

STARTCHAR uni5185
ENCODING 20869
SWIDTH 750 0
DWIDTH 6 0
BBX 5 7 0 0
BITMAP
20
F8
A8
A8
D8
88
98
ENDCHAR

STARTCHAR uni5188
ENCODING 20872
SWIDTH 750 0
DWIDTH 6 0
BBX 5 7 0 0
BITMAP
F8
88
D8
A8
D8
88
98
ENDCHAR

STARTCHAR uni5189
ENCODING 20873
SWIDTH 750 0
DWIDTH 6 0
BBX 5 7 0 0
BITMAP
20
78
68
F8
68
78
48
ENDCHAR

STARTCHAR uni518C
ENCODING 20876
SWIDTH 750 0
DWIDTH 6 0
BBX 5 7 0 0
BITMAP
D8
A8
A8
F8
A8
A8
A8
ENDCHAR

STARTCHAR uni518D
ENCODING 20877
SWIDTH 750 0
DWIDTH 6 0
BBX 5 7 0 0
BITMAP
F8
20
70
50
F8
50
50
ENDCHAR

STARTCHAR uni5197
ENCODING 20887
SWIDTH 750 0
DWIDTH 6 0
BBX 5 7 0 0
BITMAP
F8
88
70
50
50
50
98
ENDCHAR

STARTCHAR uni5199
ENCODING 20889
SWIDTH 750 0
DWIDTH 6 0
BBX 5 7 0 0
BITMAP
F8
88
70
40
78
08
E8
ENDCHAR

STARTCHAR uni519B
ENCODING 20891
SWIDTH 750 0
DWIDTH 6 0
BBX 5 7 0 0
BITMAP
F8
A8
70
40
70
F8
10
ENDCHAR

STARTCHAR uni51AC
ENCODING 20908
SWIDTH 750 0
DWIDTH 6 0
BBX 5 7 0 0
BITMAP
30
50
20
D8
20
00
30
ENDCHAR

STARTCHAR uni51AF
ENCODING 20911
SWIDTH 750 0
DWIDTH 6 0
BBX 5 7 0 0
BITMAP
70
D0
50
78
88
68
18
ENDCHAR

STARTCHAR uni51B2
ENCODING 20914
SWIDTH 750 0
DWIDTH 6 0
BBX 5 7 0 0
BITMAP
90
78
58
D8
F8
90
10
ENDCHAR

STARTCHAR uni51B3
ENCODING 20915
SWIDTH 750 0
DWIDTH 6 0
BBX 5 7 0 0
BITMAP
20
70
B0
78
A0
50
88
ENDCHAR

STARTCHAR uni51B5
ENCODING 20917
SWIDTH 750 0
DWIDTH 6 0
BBX 5 7 0 0
BITMAP
70
C8
48
78
B0
B0
58
ENDCHAR

STARTCHAR uni51B7
ENCODING 20919
SWIDTH 750 0
DWIDTH 6 0
BBX 5 7 0 0
BITMAP
10
A8
58
00
B8
A8
10
ENDCHAR

STARTCHAR uni51C6
ENCODING 20934
SWIDTH 750 0
DWIDTH 6 0
BBX 5 7 0 0
BITMAP
30
78
D0
78
78
D0
78
ENDCHAR

STARTCHAR uni51E0
ENCODING 20960
SWIDTH 750 0
DWIDTH 6 0
BBX 5 7 0 0
BITMAP
70
50
50
50
50
50
98
ENDCHAR

STARTCHAR uni51E1
ENCODING 20961
SWIDTH 750 0
DWIDTH 6 0
BBX 5 7 0 0
BITMAP
70
50
50
70
50
50
98
ENDCHAR

STARTCHAR uni51E4
ENCODING 20964
SWIDTH 750 0
DWIDTH 6 0
BBX 5 7 0 0
BITMAP
F8
88
F8
D8
A8
D8
88
ENDCHAR

STARTCHAR uni51F6
ENCODING 20982
SWIDTH 750 0
DWIDTH 6 0
BBX 5 7 0 0
BITMAP
88
D8
A8
A8
D8
88
F8
ENDCHAR

STARTCHAR uni51F8
ENCODING 20984
SWIDTH 750 0
DWIDTH 6 0
BBX 5 7 0 0
BITMAP
70
50
D8
88
88
F8
88
ENDCHAR

STARTCHAR uni51F9
ENCODING 20985
SWIDTH 750 0
DWIDTH 6 0
BBX 5 7 0 0
BITMAP
D8
D8
F8
88
88
F8
88
ENDCHAR

STARTCHAR uni51FA
ENCODING 20986
SWIDTH 750 0
DWIDTH 6 0
BBX 5 7 0 0
BITMAP
20
A8
F8
20
A8
F8
88
ENDCHAR

STARTCHAR uni51FB
ENCODING 20987
SWIDTH 750 0
DWIDTH 6 0
BBX 5 7 0 0
BITMAP
20
70
20
F8
20
A8
F8
ENDCHAR

STARTCHAR uni5200
ENCODING 20992
SWIDTH 750 0
DWIDTH 6 0
BBX 5 7 0 0
BITMAP
F8
28
28
28
48
48
98
ENDCHAR

STARTCHAR uni5201
ENCODING 20993
SWIDTH 750 0
DWIDTH 6 0
BBX 5 7 0 0
BITMAP
F8
08
28
48
88
08
18
ENDCHAR

STARTCHAR uni5203
ENCODING 20995
SWIDTH 750 0
DWIDTH 6 0
BBX 5 7 0 0
BITMAP
F8
28
28
68
38
48
98
ENDCHAR

STARTCHAR uni5206
ENCODING 20998
SWIDTH 750 0
DWIDTH 6 0
BBX 5 7 0 0
BITMAP
50
50
88
70
50
50
B0
ENDCHAR

STARTCHAR uni5207
ENCODING 20999
SWIDTH 750 0
DWIDTH 6 0
BBX 5 7 0 0
BITMAP
B8
98
D8
98
D8
A8
48
ENDCHAR

STARTCHAR uni520A
ENCODING 21002
SWIDTH 750 0
DWIDTH 6 0
BBX 5 7 0 0
BITMAP
E8
58
58
F8
58
48
58
ENDCHAR

STARTCHAR uni5211
ENCODING 21009
SWIDTH 750 0
DWIDTH 6 0
BBX 5 7 0 0
BITMAP
E8
58
78
F8
78
68
A8
ENDCHAR

STARTCHAR uni5217
ENCODING 21015
SWIDTH 750 0
DWIDTH 6 0
BBX 5 7 0 0
BITMAP
E8
48
68
A8
68
48
98
ENDCHAR

STARTCHAR uni5219
ENCODING 21017
SWIDTH 750 0
DWIDTH 6 0
BBX 5 7 0 0
BITMAP
E8
B8
B8
B8
A8
48
A8
ENDCHAR

STARTCHAR uni521A
ENCODING 21018
SWIDTH 750 0
DWIDTH 6 0
BBX 5 7 0 0
BITMAP
E8
98
D8
B8
D8
98
88
ENDCHAR

STARTCHAR uni521B
ENCODING 21019
SWIDTH 750 0
DWIDTH 6 0
BBX 5 7 0 0
BITMAP
48
A8
18
F8
B8
98
E8
ENDCHAR

STARTCHAR uni521D
ENCODING 21021
SWIDTH 750 0
DWIDTH 6 0
BBX 5 7 0 0
BITMAP
40
38
D8
58
A8
68
58
ENDCHAR

STARTCHAR uni5229
ENCODING 21033
SWIDTH 750 0
DWIDTH 6 0
BBX 5 7 0 0
BITMAP
E8
58
F8
58
E8
C8
58
ENDCHAR

STARTCHAR uni522B
ENCODING 21035
SWIDTH 750 0
DWIDTH 6 0
BBX 5 7 0 0
BITMAP
E8
B8
F8
58
F8
68
A8
ENDCHAR

STARTCHAR uni5230
ENCODING 21040
SWIDTH 750 0
DWIDTH 6 0
BBX 5 7 0 0
BITMAP
E8
58
B8
58
F8
68
C8
ENDCHAR

STARTCHAR uni5236
ENCODING 21046
SWIDTH 750 0
DWIDTH 6 0
BBX 5 7 0 0
BITMAP
88
E8
58
F8
58
E8
A8
ENDCHAR

STARTCHAR uni523B
ENCODING 21051
SWIDTH 750 0
DWIDTH 6 0
BBX 5 7 0 0
BITMAP
48
E8
98
58
B8
48
A8
ENDCHAR

STARTCHAR uni524D
ENCODING 21069
SWIDTH 750 0
DWIDTH 6 0
BBX 5 7 0 0
BITMAP
50
F8
00
E8
A8
E8
A8
ENDCHAR

STARTCHAR uni5251
ENCODING 21073
SWIDTH 750 0
DWIDTH 6 0
BBX 5 7 0 0
BITMAP
68
98
F8
08
A8
58
F8
ENDCHAR

STARTCHAR uni529B
ENCODING 21147
SWIDTH 750 0
DWIDTH 6 0
BBX 5 7 0 0
BITMAP
20
F8
28
28
48
48
98
ENDCHAR

STARTCHAR uni529D
ENCODING 21149
SWIDTH 750 0
DWIDTH 6 0
BBX 5 7 0 0
BITMAP
10
F0
B8
68
68
A8
58
ENDCHAR

STARTCHAR uni529E
ENCODING 21150
SWIDTH 750 0
DWIDTH 6 0
BBX 5 7 0 0
BITMAP
40
F0
50
D8
D8
50
B0
ENDCHAR

STARTCHAR uni529F
ENCODING 21151
SWIDTH 750 0
DWIDTH 6 0
BBX 5 7 0 0
BITMAP
20
F8
68
68
E8
28
58
ENDCHAR

STARTCHAR uni52A0
ENCODING 21152
SWIDTH 750 0
DWIDTH 6 0
BBX 5 7 0 0
BITMAP
40
F8
68
68
68
78
A0
ENDCHAR

STARTCHAR uni52A1
ENCODING 21153
SWIDTH 750 0
DWIDTH 6 0
BBX 5 7 0 0
BITMAP
30
50
60
B8
70
28
D8
ENDCHAR

STARTCHAR uni52A8
ENCODING 21160
SWIDTH 750 0
DWIDTH 6 0
BBX 5 7 0 0
BITMAP
10
D0
38
D8
58
A8
E8
ENDCHAR

STARTCHAR uni52BF
ENCODING 21183
SWIDTH 750 0
DWIDTH 6 0
BBX 5 7 0 0
BITMAP
50
F8
D8
20
F8
48
98
ENDCHAR

STARTCHAR uni52FA
ENCODING 21242
SWIDTH 750 0
DWIDTH 6 0
BBX 5 7 0 0
BITMAP
40
78
88
48
28
08
18
ENDCHAR

STARTCHAR uni52FE
ENCODING 21246
SWIDTH 750 0
DWIDTH 6 0
BBX 5 7 0 0
BITMAP
40
78
88
28
58
E8
18
ENDCHAR

STARTCHAR uni52FF
ENCODING 21247
SWIDTH 750 0
DWIDTH 6 0
BBX 5 7 0 0
BITMAP
40
78
A8
28
58
A8
58
ENDCHAR

STARTCHAR uni5300
ENCODING 21248
SWIDTH 750 0
DWIDTH 6 0
BBX 5 7 0 0
BITMAP
40
78
88
68
18
E8
18
ENDCHAR

STARTCHAR uni5305
ENCODING 21253
SWIDTH 750 0
DWIDTH 6 0
BBX 5 7 0 0
BITMAP
40
78
88
68
78
40
38
ENDCHAR

STARTCHAR uni5306
ENCODING 21254
SWIDTH 750 0
DWIDTH 6 0
BBX 5 7 0 0
BITMAP
40
78
A8
68
58
A8
58
ENDCHAR

STARTCHAR uni5315
ENCODING 21269
SWIDTH 750 0
DWIDTH 6 0
BBX 5 7 0 0
BITMAP
80
88
90
E0
80
88
78
ENDCHAR

STARTCHAR uni5316
ENCODING 21270
SWIDTH 750 0
DWIDTH 6 0
BBX 5 7 0 0
BITMAP
50
50
D0
58
70
50
58
ENDCHAR

STARTCHAR uni5317
ENCODING 21271
SWIDTH 750 0
DWIDTH 6 0
BBX 5 7 0 0
BITMAP
50
50
D8
50
50
D0
58
ENDCHAR

STARTCHAR uni5320
ENCODING 21280
SWIDTH 750 0
DWIDTH 6 0
BBX 5 7 0 0
BITMAP
F8
90
A0
B8
D0
90
F8
ENDCHAR

STARTCHAR uni5339
ENCODING 21305
SWIDTH 750 0
DWIDTH 6 0
BBX 5 7 0 0
BITMAP
F8
B0
B0
B0
D8
80
F8
ENDCHAR

STARTCHAR uni533A
ENCODING 21306
SWIDTH 750 0
DWIDTH 6 0
BBX 5 7 0 0
BITMAP
F8
80
D0
A0
D0
80
F8
ENDCHAR

STARTCHAR uni5341
ENCODING 21313
SWIDTH 750 0
DWIDTH 6 0
BBX 5 7 0 0
BITMAP
20
20
F8
20
20
20
20
ENDCHAR

STARTCHAR uni5343
ENCODING 21315
SWIDTH 750 0
DWIDTH 6 0
BBX 5 7 0 0
BITMAP
10
60
20
F8
20
20
20
ENDCHAR

STARTCHAR uni5347
ENCODING 21319
SWIDTH 750 0
DWIDTH 6 0
BBX 5 7 0 0
BITMAP
30
D0
50
F8
50
50
90
ENDCHAR

STARTCHAR uni5348
ENCODING 21320
SWIDTH 750 0
DWIDTH 6 0
BBX 5 7 0 0
BITMAP
40
70
A0
20
F8
20
20
ENDCHAR

STARTCHAR uni5349
ENCODING 21321
SWIDTH 750 0
DWIDTH 6 0
BBX 5 7 0 0
BITMAP
20
F8
20
50
F8
50
90
ENDCHAR

STARTCHAR uni534A
ENCODING 21322
SWIDTH 750 0
DWIDTH 6 0
BBX 5 7 0 0
BITMAP
20
A8
20
F8
20
F8
20
ENDCHAR

STARTCHAR uni534F
ENCODING 21327
SWIDTH 750 0
DWIDTH 6 0
BBX 5 7 0 0
BITMAP
50
78
D8
78
58
58
68
ENDCHAR

STARTCHAR uni5355
ENCODING 21333
SWIDTH 750 0
DWIDTH 6 0
BBX 5 7 0 0
BITMAP
50
00
70
70
D8
20
20
ENDCHAR

STARTCHAR uni5357
ENCODING 21335
SWIDTH 750 0
DWIDTH 6 0
BBX 5 7 0 0
BITMAP
20
F8
40
B8
D8
F8
A8
ENDCHAR

STARTCHAR uni535C
ENCODING 21340
SWIDTH 750 0
DWIDTH 6 0
BBX 5 7 0 0
BITMAP
40
40
60
50
40
40
40
ENDCHAR

STARTCHAR uni5360
ENCODING 21344
SWIDTH 750 0
DWIDTH 6 0
BBX 5 7 0 0
BITMAP
20
38
20
F8
88
88
F8
ENDCHAR

STARTCHAR uni5361
ENCODING 21345
SWIDTH 750 0
DWIDTH 6 0
BBX 5 7 0 0
BITMAP
20
38
20
F8
20
30
28
ENDCHAR

STARTCHAR uni5362
ENCODING 21346
SWIDTH 750 0
DWIDTH 6 0
BBX 5 7 0 0
BITMAP
38
20
78
48
78
40
80
ENDCHAR

STARTCHAR uni536B
ENCODING 21355
SWIDTH 750 0
DWIDTH 6 0
BBX 5 7 0 0
BITMAP
F8
48
48
48
58
40
F8
ENDCHAR

STARTCHAR uni536F
ENCODING 21359
SWIDTH 750 0
DWIDTH 6 0
BBX 5 7 0 0
BITMAP
40
B8
A8
A8
E8
60
A0
ENDCHAR

STARTCHAR uni5370
ENCODING 21360
SWIDTH 750 0
DWIDTH 6 0
BBX 5 7 0 0
BITMAP
40
B8
A8
E8
A8
E8
20
ENDCHAR

STARTCHAR uni5373
ENCODING 21363
SWIDTH 750 0
DWIDTH 6 0
BBX 5 7 0 0
BITMAP
D8
58
D8
D8
98
B0
D0
ENDCHAR

STARTCHAR uni5374
ENCODING 21364
SWIDTH 750 0
DWIDTH 6 0
BBX 5 7 0 0
BITMAP
40
F8
58
F8
58
B8
D0
ENDCHAR

STARTCHAR uni5382
ENCODING 21378
SWIDTH 750 0
DWIDTH 6 0
BBX 5 7 0 0
BITMAP
78
40
40
40
40
40
80
ENDCHAR

STARTCHAR uni5385
ENCODING 21381
SWIDTH 750 0
DWIDTH 6 0
BBX 5 7 0 0
BITMAP
78
40
78
50
50
90
B0
ENDCHAR

STARTCHAR uni5386
ENCODING 21382
SWIDTH 750 0
DWIDTH 6 0
BBX 5 7 0 0
BITMAP
78
50
78
58
58
58
A8
ENDCHAR

STARTCHAR uni5389
ENCODING 21385
SWIDTH 750 0
DWIDTH 6 0
BBX 5 7 0 0
BITMAP
F8
80
F8
A0
B8
A8
58
ENDCHAR

STARTCHAR uni538B
ENCODING 21387
SWIDTH 750 0
DWIDTH 6 0
BBX 5 7 0 0
BITMAP
F0
80
A0
F0
A8
A0
F8
ENDCHAR

STARTCHAR uni538C
ENCODING 21388
SWIDTH 750 0
DWIDTH 6 0
BBX 5 7 0 0
BITMAP
F8
80
A8
F8
A0
D0
88
ENDCHAR

STARTCHAR uni539F
ENCODING 21407
SWIDTH 750 0
DWIDTH 6 0
BBX 5 7 0 0
BITMAP
F8
A0
F8
C8
B0
D8
B0
ENDCHAR

STARTCHAR uni53BB
ENCODING 21435
SWIDTH 750 0
DWIDTH 6 0
BBX 5 7 0 0
BITMAP
20
70
20
F8
20
50
E8
ENDCHAR

STARTCHAR uni53C8
ENCODING 21448
SWIDTH 750 0
DWIDTH 6 0
BBX 5 7 0 0
BITMAP
F8
08
50
50
20
50
88
ENDCHAR

STARTCHAR uni53C9
ENCODING 21449
SWIDTH 750 0
DWIDTH 6 0
BBX 5 7 0 0
BITMAP
F8
28
88
50
20
50
88
ENDCHAR

STARTCHAR uni53CA
ENCODING 21450
SWIDTH 750 0
DWIDTH 6 0
BBX 5 7 0 0
BITMAP
F0
50
58
48
68
50
A8
ENDCHAR

STARTCHAR uni53CB
ENCODING 21451
SWIDTH 750 0
DWIDTH 6 0
BBX 5 7 0 0
BITMAP
40
F8
40
70
D0
20
D8
ENDCHAR

STARTCHAR uni53CC
ENCODING 21452
SWIDTH 750 0
DWIDTH 6 0
BBX 5 7 0 0
BITMAP
F8
28
A8
68
50
50
A8
ENDCHAR

STARTCHAR uni53CD
ENCODING 21453
SWIDTH 750 0
DWIDTH 6 0
BBX 5 7 0 0
BITMAP
F8
80
F8
A8
A8
90
A8
ENDCHAR

STARTCHAR uni53D1
ENCODING 21457
SWIDTH 750 0
DWIDTH 6 0
BBX 5 7 0 0
BITMAP
A8
F8
40
70
D0
20
D8
ENDCHAR

STARTCHAR uni53D6
ENCODING 21462
SWIDTH 750 0
DWIDTH 6 0
BBX 5 7 0 0
BITMAP
E0
58
68
68
50
E8
20
ENDCHAR

STARTCHAR uni53D7
ENCODING 21463
SWIDTH 750 0
DWIDTH 6 0
BBX 5 7 0 0
BITMAP
F8
50
F8
88
70
20
D8
ENDCHAR

STARTCHAR uni53D8
ENCODING 21464
SWIDTH 750 0
DWIDTH 6 0
BBX 5 7 0 0
BITMAP
20
F8
50
D8
70
20
D8
ENDCHAR

STARTCHAR uni53E3
ENCODING 21475
SWIDTH 750 0
DWIDTH 6 0
BBX 5 7 0 0
BITMAP
00
F8
88
88
88
F8
88
ENDCHAR

STARTCHAR uni53E4
ENCODING 21476
SWIDTH 750 0
DWIDTH 6 0
BBX 5 7 0 0
BITMAP
20
20
F8
20
F8
88
F8
ENDCHAR

STARTCHAR uni53E5
ENCODING 21477
SWIDTH 750 0
DWIDTH 6 0
BBX 5 7 0 0
BITMAP
40
78
88
78
58
78
08
ENDCHAR

STARTCHAR uni53E6
ENCODING 21478
SWIDTH 750 0
DWIDTH 6 0
BBX 5 7 0 0
BITMAP
F8
88
F8
20
F8
48
98
ENDCHAR

STARTCHAR uni53E8
ENCODING 21480
SWIDTH 750 0
DWIDTH 6 0
BBX 5 7 0 0
BITMAP
38
D8
D8
D8
D8
28
48
ENDCHAR

STARTCHAR uni53E9
ENCODING 21481
SWIDTH 750 0
DWIDTH 6 0
BBX 5 7 0 0
BITMAP
38
E8
A8
A8
E8
20
20
ENDCHAR

STARTCHAR uni53EA
ENCODING 21482
SWIDTH 750 0
DWIDTH 6 0
BBX 5 7 0 0
BITMAP
F8
88
88
F8
00
50
88
ENDCHAR

STARTCHAR uni53EB
ENCODING 21483
SWIDTH 750 0
DWIDTH 6 0
BBX 5 7 0 0
BITMAP
08
E8
A8
A8
E8
38
08
ENDCHAR

STARTCHAR uni53EC
ENCODING 21484
SWIDTH 750 0
DWIDTH 6 0
BBX 5 7 0 0
BITMAP
F8
28
48
98
F8
88
F8
ENDCHAR

STARTCHAR uni53ED
ENCODING 21485
SWIDTH 750 0
DWIDTH 6 0
BBX 5 7 0 0
BITMAP
50
D0
D0
D0
D0
50
88
ENDCHAR

STARTCHAR uni53EE
ENCODING 21486
SWIDTH 750 0
DWIDTH 6 0
BBX 5 7 0 0
BITMAP
38
D0
D0
D0
D0
10
30
ENDCHAR

STARTCHAR uni53EF
ENCODING 21487
SWIDTH 750 0
DWIDTH 6 0
BBX 5 7 0 0
BITMAP
F8
10
F0
B0
D0
10
30
ENDCHAR

STARTCHAR uni53F0
ENCODING 21488
SWIDTH 750 0
DWIDTH 6 0
BBX 5 7 0 0
BITMAP
20
20
50
E8
00
70
70
ENDCHAR

STARTCHAR uni53F2
ENCODING 21490
SWIDTH 750 0
DWIDTH 6 0
BBX 5 7 0 0
BITMAP
20
F8
A8
F8
60
20
D8
ENDCHAR

STARTCHAR uni53F3
ENCODING 21491
SWIDTH 750 0
DWIDTH 6 0
BBX 5 7 0 0
BITMAP
40
F8
40
78
C8
48
78
ENDCHAR

STARTCHAR uni53F6
ENCODING 21494
SWIDTH 750 0
DWIDTH 6 0
BBX 5 7 0 0
BITMAP
10
D0
F8
D0
D0
10
10
ENDCHAR

STARTCHAR uni53F7
ENCODING 21495
SWIDTH 750 0
DWIDTH 6 0
BBX 5 7 0 0
BITMAP
70
50
F8
40
70
10
30
ENDCHAR

STARTCHAR uni53F8
ENCODING 21496
SWIDTH 750 0
DWIDTH 6 0
BBX 5 7 0 0
BITMAP
F8
08
E8
08
E8
E8
18
ENDCHAR

STARTCHAR uni53F9
ENCODING 21497
SWIDTH 750 0
DWIDTH 6 0
BBX 5 7 0 0
BITMAP
38
E8
A8
90
D0
28
28
ENDCHAR

STARTCHAR uni53FC
ENCODING 21500
SWIDTH 750 0
DWIDTH 6 0
BBX 5 7 0 0
BITMAP
38
C8
C8
D8
E8
08
18
ENDCHAR

STARTCHAR uni53FD
ENCODING 21501
SWIDTH 750 0
DWIDTH 6 0
BBX 5 7 0 0
BITMAP
70
D0
D0
D0
D0
50
98
ENDCHAR

STARTCHAR uni5403
ENCODING 21507
SWIDTH 750 0
DWIDTH 6 0
BBX 5 7 0 0
BITMAP
20
38
C0
B8
D0
20
18
ENDCHAR

STARTCHAR uni5404
ENCODING 21508
SWIDTH 750 0
DWIDTH 6 0
BBX 5 7 0 0
BITMAP
30
50
20
D8
70
50
70
ENDCHAR

STARTCHAR uni5408
ENCODING 21512
SWIDTH 750 0
DWIDTH 6 0
BBX 5 7 0 0
BITMAP
20
50
F8
00
70
50
70
ENDCHAR

STARTCHAR uni5409
ENCODING 21513
SWIDTH 750 0
DWIDTH 6 0
BBX 5 7 0 0
BITMAP
20
F8
20
70
00
70
70
ENDCHAR

STARTCHAR uni540C
ENCODING 21516
SWIDTH 750 0
DWIDTH 6 0
BBX 5 7 0 0
BITMAP
F8
88
F8
B8
D8
E8
98
ENDCHAR

STARTCHAR uni540D
ENCODING 21517
SWIDTH 750 0
DWIDTH 6 0
BBX 5 7 0 0
BITMAP
38
48
D0
20
F8
48
78
ENDCHAR

STARTCHAR uni540E
ENCODING 21518
SWIDTH 750 0
DWIDTH 6 0
BBX 5 7 0 0
BITMAP
08
F0
80
F8
80
A8
B8
ENDCHAR

STARTCHAR uni540F
ENCODING 21519
SWIDTH 750 0
DWIDTH 6 0
BBX 5 7 0 0
BITMAP
20
F8
70
70
60
20
D8
ENDCHAR

STARTCHAR uni5411
ENCODING 21521
SWIDTH 750 0
DWIDTH 6 0
BBX 5 7 0 0
BITMAP
40
F8
88
B8
D8
E8
88
ENDCHAR

STARTCHAR uni5417
ENCODING 21527
SWIDTH 750 0
DWIDTH 6 0
BBX 5 7 0 0
BITMAP
30
D0
B0
B8
C8
A8
18
ENDCHAR

STARTCHAR uni5427
ENCODING 21543
SWIDTH 750 0
DWIDTH 6 0
BBX 5 7 0 0
BITMAP
38
E8
B8
B8
E0
A8
18
ENDCHAR

STARTCHAR uni542C
ENCODING 21548
SWIDTH 750 0
DWIDTH 6 0
BBX 5 7 0 0
BITMAP
08
F0
A0
B8
E8
28
48
ENDCHAR

STARTCHAR uni544A
ENCODING 21578
SWIDTH 750 0
DWIDTH 6 0
BBX 5 7 0 0
BITMAP
60
70
A0
F8
70
50
70
ENDCHAR

STARTCHAR uni5458
ENCODING 21592
SWIDTH 750 0
DWIDTH 6 0
BBX 5 7 0 0
BITMAP
70
50
F8
88
A8
30
C8
ENDCHAR

STARTCHAR uni5462
ENCODING 21602
SWIDTH 750 0
DWIDTH 6 0
BBX 5 7 0 0
BITMAP
38
E8
B8
A0
E8
30
58
ENDCHAR

STARTCHAR uni5468
ENCODING 21608
SWIDTH 750 0
DWIDTH 6 0
BBX 5 7 0 0
BITMAP
F8
A8
F8
F8
A8
D8
A8
ENDCHAR

STARTCHAR uni547D
ENCODING 21629
SWIDTH 750 0
DWIDTH 6 0
BBX 5 7 0 0
BITMAP
20
50
F8
00
D8
D8
10
ENDCHAR

STARTCHAR uni548C
ENCODING 21644
SWIDTH 750 0
DWIDTH 6 0
BBX 5 7 0 0
BITMAP
E0
58
F8
58
F8
D8
40
ENDCHAR

STARTCHAR uni54C1
ENCODING 21697
SWIDTH 750 0
DWIDTH 6 0
BBX 5 7 0 0
BITMAP
70
50
70
00
F8
A8
F8
ENDCHAR

STARTCHAR uni54CD
ENCODING 21709
SWIDTH 750 0
DWIDTH 6 0
BBX 5 7 0 0
BITMAP
10
38
E8
B8
B8
F8
28
ENDCHAR

STARTCHAR uni54EA
ENCODING 21738
SWIDTH 750 0
DWIDTH 6 0
BBX 5 7 0 0
BITMAP
78
D8
F0
D8
F8
50
B0
ENDCHAR

STARTCHAR uni554A
ENCODING 21834
SWIDTH 750 0
DWIDTH 6 0
BBX 5 7 0 0
BITMAP
78
E8
D8
E8
F8
48
58
ENDCHAR

STARTCHAR uni5668
ENCODING 22120
SWIDTH 750 0
DWIDTH 6 0
BBX 5 7 0 0
BITMAP
D8
98
20
F8
50
C8
D8
ENDCHAR

STARTCHAR uni56DA
ENCODING 22234
SWIDTH 750 0
DWIDTH 6 0
BBX 5 7 0 0
BITMAP
F8
88
A8
A8
D8
88
F8
ENDCHAR

STARTCHAR uni56DB
ENCODING 22235
SWIDTH 750 0
DWIDTH 6 0
BBX 5 7 0 0
BITMAP
00
F8
D8
D8
88
F8
88
ENDCHAR

STARTCHAR uni56DE
ENCODING 22238
SWIDTH 750 0
DWIDTH 6 0
BBX 5 7 0 0
BITMAP
F8
88
B8
D8
F8
88
F8
ENDCHAR

STARTCHAR uni56E0
ENCODING 22240
SWIDTH 750 0
DWIDTH 6 0
BBX 5 7 0 0
BITMAP
F8
A8
F8
A8
D8
88
F8
ENDCHAR

STARTCHAR uni56E2
ENCODING 22242
SWIDTH 750 0
DWIDTH 6 0
BBX 5 7 0 0
BITMAP
F8
98
F8
B8
D8
98
F8
ENDCHAR

STARTCHAR uni56F4
ENCODING 22260
SWIDTH 750 0
DWIDTH 6 0
BBX 5 7 0 0
BITMAP
F8
A8
F8
F8
B8
A8
F8
ENDCHAR

STARTCHAR uni56FD
ENCODING 22269
SWIDTH 750 0
DWIDTH 6 0
BBX 5 7 0 0
BITMAP
F8
F8
A8
F8
B8
F8
88
ENDCHAR

STARTCHAR uni56FE
ENCODING 22270
SWIDTH 750 0
DWIDTH 6 0
BBX 5 7 0 0
BITMAP
F8
B8
D8
A8
D8
A8
F8
ENDCHAR

STARTCHAR uni571F
ENCODING 22303
SWIDTH 750 0
DWIDTH 6 0
BBX 5 7 0 0
BITMAP
20
20
70
20
20
20
F8
ENDCHAR

STARTCHAR uni5723
ENCODING 22307
SWIDTH 750 0
DWIDTH 6 0
BBX 5 7 0 0
BITMAP
F8
50
20
D8
70
20
F8
ENDCHAR

STARTCHAR uni5728
ENCODING 22312
SWIDTH 750 0
DWIDTH 6 0
BBX 5 7 0 0
BITMAP
20
F8
40
D0
78
50
78
ENDCHAR

STARTCHAR uni5730
ENCODING 22320
SWIDTH 750 0
DWIDTH 6 0
BBX 5 7 0 0
BITMAP
60
68
F8
68
68
E0
38
ENDCHAR

STARTCHAR uni573A
ENCODING 22330
SWIDTH 750 0
DWIDTH 6 0
BBX 5 7 0 0
BITMAP
78
48
D0
68
58
E8
18
ENDCHAR

STARTCHAR uni573E
ENCODING 22334
SWIDTH 750 0
DWIDTH 6 0
BBX 5 7 0 0
BITMAP
38
48
D0
68
68
D0
28
ENDCHAR

STARTCHAR uni5750
ENCODING 22352
SWIDTH 750 0
DWIDTH 6 0
BBX 5 7 0 0
BITMAP
50
50
A8
20
70
20
F8
ENDCHAR

STARTCHAR uni5782
ENCODING 22402
SWIDTH 750 0
DWIDTH 6 0
BBX 5 7 0 0
BITMAP
70
20
F8
50
F8
20
F8
ENDCHAR

STARTCHAR uni57CE
ENCODING 22478
SWIDTH 750 0
DWIDTH 6 0
BBX 5 7 0 0
BITMAP
50
78
F0
70
78
F0
28
ENDCHAR

STARTCHAR uni57DF
ENCODING 22495
SWIDTH 750 0
DWIDTH 6 0
BBX 5 7 0 0
BITMAP
50
78
D0
70
78
D0
28
ENDCHAR

STARTCHAR uni57FA
ENCODING 22522
SWIDTH 750 0
DWIDTH 6 0
BBX 5 7 0 0
BITMAP
50
F8
70
F8
50
A8
70
ENDCHAR

STARTCHAR uni5883
ENCODING 22659
SWIDTH 750 0
DWIDTH 6 0
BBX 5 7 0 0
BITMAP
50
78
F8
68
78
90
28
ENDCHAR

STARTCHAR uni58EB
ENCODING 22763
SWIDTH 750 0
DWIDTH 6 0
BBX 5 7 0 0
BITMAP
20
20
F8
20
20
20
70
ENDCHAR

STARTCHAR uni58EC
ENCODING 22764
SWIDTH 750 0
DWIDTH 6 0
BBX 5 7 0 0
BITMAP
18
E0
20
F8
20
20
F8
ENDCHAR

STARTCHAR uni58F0
ENCODING 22768
SWIDTH 750 0
DWIDTH 6 0
BBX 5 7 0 0
BITMAP
20
F8
20
58
68
40
80
ENDCHAR

STARTCHAR uni5904
ENCODING 22788
SWIDTH 750 0
DWIDTH 6 0
BBX 5 7 0 0
BITMAP
50
70
B0
78
30
50
88
ENDCHAR

STARTCHAR uni5907
ENCODING 22791
SWIDTH 750 0
DWIDTH 6 0
BBX 5 7 0 0
BITMAP
70
90
20
D8
70
70
70
ENDCHAR

STARTCHAR uni590D
ENCODING 22797
SWIDTH 750 0
DWIDTH 6 0
BBX 5 7 0 0
BITMAP
78
B0
30
30
50
B0
68
ENDCHAR

STARTCHAR uni590F
ENCODING 22799
SWIDTH 750 0
DWIDTH 6 0
BBX 5 7 0 0
BITMAP
F8
70
50
70
D0
20
D8
ENDCHAR

STARTCHAR uni5915
ENCODING 22805
SWIDTH 750 0
DWIDTH 6 0
BBX 5 7 0 0
BITMAP
40
78
48
A8
10
20
C0
ENDCHAR

STARTCHAR uni5916
ENCODING 22806
SWIDTH 750 0
DWIDTH 6 0
BBX 5 7 0 0
BITMAP
50
70
B0
78
30
50
90
ENDCHAR

STARTCHAR uni591A
ENCODING 22810
SWIDTH 750 0
DWIDTH 6 0
BBX 5 7 0 0
BITMAP
30
50
20
D8
28
10
60
ENDCHAR

STARTCHAR uni591C
ENCODING 22812
SWIDTH 750 0
DWIDTH 6 0
BBX 5 7 0 0
BITMAP
20
F8
50
D8
68
50
68
ENDCHAR

STARTCHAR uni591F
ENCODING 22815
SWIDTH 750 0
DWIDTH 6 0
BBX 5 7 0 0
BITMAP
98
E8
30
E8
F8
28
50
ENDCHAR

STARTCHAR uni5927
ENCODING 22823
SWIDTH 750 0
DWIDTH 6 0
BBX 5 7 0 0
BITMAP
20
20
F8
20
20
50
88
ENDCHAR

STARTCHAR uni5929
ENCODING 22825
SWIDTH 750 0
DWIDTH 6 0
BBX 5 7 0 0
BITMAP
F8
20
F8
20
20
50
88
ENDCHAR

STARTCHAR uni592A
ENCODING 22826
SWIDTH 750 0
DWIDTH 6 0
BBX 5 7 0 0
BITMAP
20
20
F8
20
20
50
A8
ENDCHAR

STARTCHAR uni592B
ENCODING 22827
SWIDTH 750 0
DWIDTH 6 0
BBX 5 7 0 0
BITMAP
20
70
20
F8
20
50
88
ENDCHAR

STARTCHAR uni592D
ENCODING 22829
SWIDTH 750 0
DWIDTH 6 0
BBX 5 7 0 0
BITMAP
10
60
20
F8
20
50
88
ENDCHAR

STARTCHAR uni592E
ENCODING 22830
SWIDTH 750 0
DWIDTH 6 0
BBX 5 7 0 0
BITMAP
20
F8
A8
F8
20
50
88
ENDCHAR

STARTCHAR uni592F
ENCODING 22831
SWIDTH 750 0
DWIDTH 6 0
BBX 5 7 0 0
BITMAP
20
F8
50
A8
70
50
B0
ENDCHAR

STARTCHAR uni5931
ENCODING 22833
SWIDTH 750 0
DWIDTH 6 0
BBX 5 7 0 0
BITMAP
60
70
A0
F8
20
50
88
ENDCHAR

STARTCHAR uni5934
ENCODING 22836
SWIDTH 750 0
DWIDTH 6 0
BBX 5 7 0 0
BITMAP
50
30
90
50
F8
30
C8
ENDCHAR

STARTCHAR uni5938
ENCODING 22840
SWIDTH 750 0
DWIDTH 6 0
BBX 5 7 0 0
BITMAP
20
F8
50
A8
70
10
20
ENDCHAR

STARTCHAR uni593A
ENCODING 22842
SWIDTH 750 0
DWIDTH 6 0
BBX 5 7 0 0
BITMAP
20
F8
50
98
F8
50
30
ENDCHAR

STARTCHAR uni5947
ENCODING 22855
SWIDTH 750 0
DWIDTH 6 0
BBX 5 7 0 0
BITMAP
20
F8
50
F8
70
70
10
ENDCHAR

STARTCHAR uni594B
ENCODING 22859
SWIDTH 750 0
DWIDTH 6 0
BBX 5 7 0 0
BITMAP
20
F8
50
88
70
70
70
ENDCHAR

STARTCHAR uni5973
ENCODING 22899
SWIDTH 750 0
DWIDTH 6 0
BBX 5 7 0 0
BITMAP
20
20
F8
50
60
30
C8
ENDCHAR

STARTCHAR uni5974
ENCODING 22900
SWIDTH 750 0
DWIDTH 6 0
BBX 5 7 0 0
BITMAP
B8
88
E8
A8
B0
50
A8
ENDCHAR

STARTCHAR uni5976
ENCODING 22902
SWIDTH 750 0
DWIDTH 6 0
BBX 5 7 0 0
BITMAP
B8
A8
F0
A8
A8
68
D0
ENDCHAR

STARTCHAR uni5979
ENCODING 22905
SWIDTH 750 0
DWIDTH 6 0
BBX 5 7 0 0
BITMAP
90
90
D8
B8
B8
60
B8
ENDCHAR

STARTCHAR uni597D
ENCODING 22909
SWIDTH 750 0
DWIDTH 6 0
BBX 5 7 0 0
BITMAP
B8
88
D0
F8
D0
50
B0
ENDCHAR

STARTCHAR uni5982
ENCODING 22914
SWIDTH 750 0
DWIDTH 6 0
BBX 5 7 0 0
BITMAP
80
B8
E8
A8
A8
58
A0
ENDCHAR

STARTCHAR uni5996
ENCODING 22934
SWIDTH 750 0
DWIDTH 6 0
BBX 5 7 0 0
BITMAP
88
B0
D0
B8
B0
50
A8
ENDCHAR

STARTCHAR uni59A9
ENCODING 22953
SWIDTH 750 0
DWIDTH 6 0
BBX 5 7 0 0
BITMAP
B8
90
F8
B0
B0
50
98
ENDCHAR

STARTCHAR uni59CB
ENCODING 22987
SWIDTH 750 0
DWIDTH 6 0
BBX 5 7 0 0
BITMAP
90
90
E8
B8
C0
68
B8
ENDCHAR

STARTCHAR uni5A9A
ENCODING 23194
SWIDTH 750 0
DWIDTH 6 0
BBX 5 7 0 0
BITMAP
B8
B8
E0
B8
B8
58
B8
ENDCHAR

STARTCHAR uni5B50
ENCODING 23376
SWIDTH 750 0
DWIDTH 6 0
BBX 5 7 0 0
BITMAP
70
10
20
F8
20
20
60
ENDCHAR

STARTCHAR uni5B54
ENCODING 23380
SWIDTH 750 0
DWIDTH 6 0
BBX 5 7 0 0
BITMAP
F0
30
50
70
D0
50
D8
ENDCHAR

STARTCHAR uni5B55
ENCODING 23381
SWIDTH 750 0
DWIDTH 6 0
BBX 5 7 0 0
BITMAP
F0
58
88
70
10
F8
20
ENDCHAR

STARTCHAR uni5B57
ENCODING 23383
SWIDTH 750 0
DWIDTH 6 0
BBX 5 7 0 0
BITMAP
20
F8
B8
10
F8
20
60
ENDCHAR

STARTCHAR uni5B58
ENCODING 23384
SWIDTH 750 0
DWIDTH 6 0
BBX 5 7 0 0
BITMAP
20
F8
58
C8
50
78
50
ENDCHAR

STARTCHAR uni5B66
ENCODING 23398
SWIDTH 750 0
DWIDTH 6 0
BBX 5 7 0 0
BITMAP
50
F8
B8
10
F8
20
60
ENDCHAR

STARTCHAR uni5B81
ENCODING 23425
SWIDTH 750 0
DWIDTH 6 0
BBX 5 7 0 0
BITMAP
20
F8
88
F8
20
20
60
ENDCHAR

STARTCHAR uni5B83
ENCODING 23427
SWIDTH 750 0
DWIDTH 6 0
BBX 5 7 0 0
BITMAP
20
F8
88
50
60
48
78
ENDCHAR

STARTCHAR uni5B89
ENCODING 23433
SWIDTH 750 0
DWIDTH 6 0
BBX 5 7 0 0
BITMAP
20
F8
C8
F8
50
30
C8
ENDCHAR

STARTCHAR uni5B8C
ENCODING 23436
SWIDTH 750 0
DWIDTH 6 0
BBX 5 7 0 0
BITMAP
20
78
88
70
F8
50
98
ENDCHAR

STARTCHAR uni5B98
ENCODING 23448
SWIDTH 750 0
DWIDTH 6 0
BBX 5 7 0 0
BITMAP
20
F8
E8
50
70
48
78
ENDCHAR

STARTCHAR uni5B9A
ENCODING 23450
SWIDTH 750 0
DWIDTH 6 0
BBX 5 7 0 0
BITMAP
20
F8
88
70
38
60
98
ENDCHAR

STARTCHAR uni5B9E
ENCODING 23454
SWIDTH 750 0
DWIDTH 6 0
BBX 5 7 0 0
BITMAP
20
F8
B8
50
F8
30
C8
ENDCHAR

STARTCHAR uni5BB3
ENCODING 23475
SWIDTH 750 0
DWIDTH 6 0
BBX 5 7 0 0
BITMAP
20
F8
A8
70
F8
50
70
ENDCHAR

STARTCHAR uni5BB6
ENCODING 23478
SWIDTH 750 0
DWIDTH 6 0
BBX 5 7 0 0
BITMAP
20
F8
88
70
68
B0
68
ENDCHAR

STARTCHAR uni5BB9
ENCODING 23481
SWIDTH 750 0
DWIDTH 6 0
BBX 5 7 0 0
BITMAP
20
F8
D8
20
D8
70
70
ENDCHAR

STARTCHAR uni5BC6
ENCODING 23494
SWIDTH 750 0
DWIDTH 6 0
BBX 5 7 0 0
BITMAP
20
F8
A8
50
B0
68
78
ENDCHAR

STARTCHAR uni5BF8
ENCODING 23544
SWIDTH 750 0
DWIDTH 6 0
BBX 5 7 0 0
BITMAP
10
F8
10
50
30
10
30
ENDCHAR

STARTCHAR uni5BF9
ENCODING 23545
SWIDTH 750 0
DWIDTH 6 0
BBX 5 7 0 0
BITMAP
08
F8
28
A8
58
48
B8
ENDCHAR

STARTCHAR uni5BFA
ENCODING 23546
SWIDTH 750 0
DWIDTH 6 0
BBX 5 7 0 0
BITMAP
20
70
F8
10
F8
50
30
ENDCHAR

STARTCHAR uni5C01
ENCODING 23553
SWIDTH 750 0
DWIDTH 6 0
BBX 5 7 0 0
BITMAP
48
F8
48
E8
58
68
D8
ENDCHAR

STARTCHAR uni5C06
ENCODING 23558
SWIDTH 750 0
DWIDTH 6 0
BBX 5 7 0 0
BITMAP
58
68
D0
78
C8
68
58
ENDCHAR

STARTCHAR uni5C0F
ENCODING 23567
SWIDTH 750 0
DWIDTH 6 0
BBX 5 7 0 0
BITMAP
20
20
70
68
A8
20
60
ENDCHAR

STARTCHAR uni5C11
ENCODING 23569
SWIDTH 750 0
DWIDTH 6 0
BBX 5 7 0 0
BITMAP
20
20
68
A0
28
10
E0
ENDCHAR

STARTCHAR uni5C14
ENCODING 23572
SWIDTH 750 0
DWIDTH 6 0
BBX 5 7 0 0
BITMAP
40
78
A8
20
A8
A8
60
ENDCHAR

STARTCHAR uni5C24
ENCODING 23588
SWIDTH 750 0
DWIDTH 6 0
BBX 5 7 0 0
BITMAP
50
F8
40
60
60
68
98
ENDCHAR

STARTCHAR uni5C31
ENCODING 23601
SWIDTH 750 0
DWIDTH 6 0
BBX 5 7 0 0
BITMAP
58
F0
B8
F0
50
F0
68
ENDCHAR

STARTCHAR uni5C38
ENCODING 23608
SWIDTH 750 0
DWIDTH 6 0
BBX 5 7 0 0
BITMAP
78
48
78
40
40
40
80
ENDCHAR

STARTCHAR uni5C3A
ENCODING 23610
SWIDTH 750 0
DWIDTH 6 0
BBX 5 7 0 0
BITMAP
78
48
78
50
50
50
88
ENDCHAR

STARTCHAR uni5C3C
ENCODING 23612
SWIDTH 750 0
DWIDTH 6 0
BBX 5 7 0 0
BITMAP
F8
88
F8
A0
B8
A0
B8
ENDCHAR

STARTCHAR uni5C3D
ENCODING 23613
SWIDTH 750 0
DWIDTH 6 0
BBX 5 7 0 0
BITMAP
78
48
78
50
88
20
10
ENDCHAR

STARTCHAR uni5C42
ENCODING 23618
SWIDTH 750 0
DWIDTH 6 0
BBX 5 7 0 0
BITMAP
78
78
40
78
50
68
B8
ENDCHAR

STARTCHAR uni5C45
ENCODING 23621
SWIDTH 750 0
DWIDTH 6 0
BBX 5 7 0 0
BITMAP
78
68
50
78
50
68
B8
ENDCHAR

STARTCHAR uni5C5E
ENCODING 23646
SWIDTH 750 0
DWIDTH 6 0
BBX 5 7 0 0
BITMAP
F8
F8
90
E0
F8
A8
88
ENDCHAR

STARTCHAR uni5C6F
ENCODING 23663
SWIDTH 750 0
DWIDTH 6 0
BBX 5 7 0 0
BITMAP
20
F8
20
A8
F8
20
38
ENDCHAR

STARTCHAR uni5C71
ENCODING 23665
SWIDTH 750 0
DWIDTH 6 0
BBX 5 7 0 0
BITMAP
20
20
A8
A8
A8
F8
88
ENDCHAR

STARTCHAR uni5C81
ENCODING 23681
SWIDTH 750 0
DWIDTH 6 0
BBX 5 7 0 0
BITMAP
A8
F8
20
78
C8
30
E0
ENDCHAR

STARTCHAR uni5DDD
ENCODING 24029
SWIDTH 750 0
DWIDTH 6 0
BBX 5 7 0 0
BITMAP
88
A8
A8
A8
A8
88
08
ENDCHAR

STARTCHAR uni5DE5
ENCODING 24037
SWIDTH 750 0
DWIDTH 6 0
BBX 5 7 0 0
BITMAP
00
70
20
20
20
20
F8
ENDCHAR

STARTCHAR uni5DE6
ENCODING 24038
SWIDTH 750 0
DWIDTH 6 0
BBX 5 7 0 0
BITMAP
40
F8
40
78
50
90
78
ENDCHAR

STARTCHAR uni5DE7
ENCODING 24039
SWIDTH 750 0
DWIDTH 6 0
BBX 5 7 0 0
BITMAP
38
D0
50
58
48
C8
18
ENDCHAR

STARTCHAR uni5DE8
ENCODING 24040
SWIDTH 750 0
DWIDTH 6 0
BBX 5 7 0 0
BITMAP
F8
80
F8
88
F8
80
F8
ENDCHAR

STARTCHAR uni5DE9
ENCODING 24041
SWIDTH 750 0
DWIDTH 6 0
BBX 5 7 0 0
BITMAP
30
D0
50
70
D0
50
98
ENDCHAR

STARTCHAR uni5DEE
ENCODING 24046
SWIDTH 750 0
DWIDTH 6 0
BBX 5 7 0 0
BITMAP
50
F8
70
F8
78
50
B8
ENDCHAR

STARTCHAR uni5DF1
ENCODING 24049
SWIDTH 750 0
DWIDTH 6 0
BBX 5 7 0 0
BITMAP
F0
10
10
F0
80
88
78
ENDCHAR

STARTCHAR uni5DF2
ENCODING 24050
SWIDTH 750 0
DWIDTH 6 0
BBX 5 7 0 0
BITMAP
F0
10
90
F0
80
88
78
ENDCHAR

STARTCHAR uni5DF3
ENCODING 24051
SWIDTH 750 0
DWIDTH 6 0
BBX 5 7 0 0
BITMAP
F0
90
90
F0
80
88
78
ENDCHAR

STARTCHAR uni5DF4
ENCODING 24052
SWIDTH 750 0
DWIDTH 6 0
BBX 5 7 0 0
BITMAP
F8
A8
A8
F8
80
88
78
ENDCHAR

STARTCHAR uni5DFE
ENCODING 24062
SWIDTH 750 0
DWIDTH 6 0
BBX 5 7 0 0
BITMAP
20
F8
A8
A8
A8
A8
20
ENDCHAR

STARTCHAR uni5E01
ENCODING 24065
SWIDTH 750 0
DWIDTH 6 0
BBX 5 7 0 0
BITMAP
18
E0
20
F8
A8
A8
30
ENDCHAR

STARTCHAR uni5E02
ENCODING 24066
SWIDTH 750 0
DWIDTH 6 0
BBX 5 7 0 0
BITMAP
20
F8
20
F8
A8
A8
20
ENDCHAR

STARTCHAR uni5E03
ENCODING 24067
SWIDTH 750 0
DWIDTH 6 0
BBX 5 7 0 0
BITMAP
20
F8
40
90
78
58
10
ENDCHAR

STARTCHAR uni5E05
ENCODING 24069
SWIDTH 750 0
DWIDTH 6 0
BBX 5 7 0 0
BITMAP
50
78
D8
D8
D8
50
90
ENDCHAR

STARTCHAR uni5E08
ENCODING 24072
SWIDTH 750 0
DWIDTH 6 0
BBX 5 7 0 0
BITMAP
78
D0
F8
D8
D8
58
90
ENDCHAR

STARTCHAR uni5E0C
ENCODING 24076
SWIDTH 750 0
DWIDTH 6 0
BBX 5 7 0 0
BITMAP
50
20
50
F8
20
78
A8
ENDCHAR

STARTCHAR uni5E1D
ENCODING 24093
SWIDTH 750 0
DWIDTH 6 0
BBX 5 7 0 0
BITMAP
20
F8
50
F8
A8
70
50
ENDCHAR

STARTCHAR uni5E26
ENCODING 24102
SWIDTH 750 0
DWIDTH 6 0
BBX 5 7 0 0
BITMAP
70
F8
70
F8
A8
70
50
ENDCHAR

STARTCHAR uni5E2E
ENCODING 24110
SWIDTH 750 0
DWIDTH 6 0
BBX 5 7 0 0
BITMAP
58
F0
78
90
20
F8
A8
ENDCHAR

STARTCHAR uni5E38
ENCODING 24120
SWIDTH 750 0
DWIDTH 6 0
BBX 5 7 0 0
BITMAP
A8
F8
D8
70
F8
A8
A8
ENDCHAR

STARTCHAR uni5E72
ENCODING 24178
SWIDTH 750 0
DWIDTH 6 0
BBX 5 7 0 0
BITMAP
70
20
20
F8
20
20
20
ENDCHAR

STARTCHAR uni5E73
ENCODING 24179
SWIDTH 750 0
DWIDTH 6 0
BBX 5 7 0 0
BITMAP
F8
20
A8
20
F8
20
20
ENDCHAR

STARTCHAR uni5E74
ENCODING 24180
SWIDTH 750 0
DWIDTH 6 0
BBX 5 7 0 0
BITMAP
40
78
90
78
50
F8
10
ENDCHAR

STARTCHAR uni5E76
ENCODING 24182
SWIDTH 750 0
DWIDTH 6 0
BBX 5 7 0 0
BITMAP
50
00
F8
50
F8
50
90
ENDCHAR

STARTCHAR uni5E7B
ENCODING 24187
SWIDTH 750 0
DWIDTH 6 0
BBX 5 7 0 0
BITMAP
40
58
88
48
A8
E8
10
ENDCHAR

STARTCHAR uni5E7C
ENCODING 24188
SWIDTH 750 0
DWIDTH 6 0
BBX 5 7 0 0
BITMAP
50
78
98
58
B8
D8
28
ENDCHAR

STARTCHAR uni5E7F
ENCODING 24191
SWIDTH 750 0
DWIDTH 6 0
BBX 5 7 0 0
BITMAP
10
78
40
40
40
40
80
ENDCHAR

STARTCHAR uni5E94
ENCODING 24212
SWIDTH 750 0
DWIDTH 6 0
BBX 5 7 0 0
BITMAP
10
78
40
50
68
50
B8
ENDCHAR

STARTCHAR uni5E95
ENCODING 24213
SWIDTH 750 0
DWIDTH 6 0
BBX 5 7 0 0
BITMAP
20
F8
B8
D0
F8
D0
E8
ENDCHAR

STARTCHAR uni5EA6
ENCODING 24230
SWIDTH 750 0
DWIDTH 6 0
BBX 5 7 0 0
BITMAP
20
F8
B0
F8
A8
90
E8
ENDCHAR

STARTCHAR uni5EFA
ENCODING 24314
SWIDTH 750 0
DWIDTH 6 0
BBX 5 7 0 0
BITMAP
38
D8
78
90
78
50
B8
ENDCHAR

STARTCHAR uni5F00
ENCODING 24320
SWIDTH 750 0
DWIDTH 6 0
BBX 5 7 0 0
BITMAP
F8
50
50
F8
50
50
90
ENDCHAR

STARTCHAR uni5F02
ENCODING 24322
SWIDTH 750 0
DWIDTH 6 0
BBX 5 7 0 0
BITMAP
70
70
48
38
50
F8
50
ENDCHAR

STARTCHAR uni5F0F
ENCODING 24335
SWIDTH 750 0
DWIDTH 6 0
BBX 5 7 0 0
BITMAP
28
20
F8
10
F0
50
E8
ENDCHAR

STARTCHAR uni5F13
ENCODING 24339
SWIDTH 750 0
DWIDTH 6 0
BBX 5 7 0 0
BITMAP
78
08
78
40
F8
08
18
ENDCHAR

STARTCHAR uni5F15
ENCODING 24341
SWIDTH 750 0
DWIDTH 6 0
BBX 5 7 0 0
BITMAP
E8
28
E8
88
E8
28
68
ENDCHAR

STARTCHAR uni5F17
ENCODING 24343
SWIDTH 750 0
DWIDTH 6 0
BBX 5 7 0 0
BITMAP
50
F8
78
D0
F8
58
90
ENDCHAR

STARTCHAR uni5F18
ENCODING 24344
SWIDTH 750 0
DWIDTH 6 0
BBX 5 7 0 0
BITMAP
D0
50
D0
90
E0
68
F8
ENDCHAR

STARTCHAR uni5F20
ENCODING 24352
SWIDTH 750 0
DWIDTH 6 0
BBX 5 7 0 0
BITMAP
E8
70
E0
B8
F0
70
E8
ENDCHAR

STARTCHAR uni5F3A
ENCODING 24378
SWIDTH 750 0
DWIDTH 6 0
BBX 5 7 0 0
BITMAP
F8
68
D0
B8
E8
50
F8
ENDCHAR

STARTCHAR uni5F52
ENCODING 24402
SWIDTH 750 0
DWIDTH 6 0
BBX 5 7 0 0
BITMAP
58
C8
C8
D8
C8
48
98
ENDCHAR

STARTCHAR uni5F53
ENCODING 24403
SWIDTH 750 0
DWIDTH 6 0
BBX 5 7 0 0
BITMAP
A8
20
F8
08
F8
08
F8
ENDCHAR

STARTCHAR uni5F62
ENCODING 24418
SWIDTH 750 0
DWIDTH 6 0
BBX 5 7 0 0
BITMAP
E8
70
68
F0
60
68
B0
ENDCHAR

STARTCHAR uni5F71
ENCODING 24433
SWIDTH 750 0
DWIDTH 6 0
BBX 5 7 0 0
BITMAP
E8
B0
E8
50
E0
A8
50
ENDCHAR

STARTCHAR uni5F80
ENCODING 24448
SWIDTH 750 0
DWIDTH 6 0
BBX 5 7 0 0
BITMAP
50
80
78
D0
78
50
78
ENDCHAR

STARTCHAR uni5F85
ENCODING 24453
SWIDTH 750 0
DWIDTH 6 0
BBX 5 7 0 0
BITMAP
50
B8
50
B8
48
68
58
ENDCHAR

STARTCHAR uni5F88
ENCODING 24456
SWIDTH 750 0
DWIDTH 6 0
BBX 5 7 0 0
BITMAP
78
A8
78
E0
68
70
68
ENDCHAR

STARTCHAR uni5F97
ENCODING 24471
SWIDTH 750 0
DWIDTH 6 0
BBX 5 7 0 0
BITMAP
58
98
78
C8
78
68
58
ENDCHAR

STARTCHAR uni5FAE
ENCODING 24494
SWIDTH 750 0
DWIDTH 6 0
BBX 5 7 0 0
BITMAP
70
B8
68
E8
70
70
68
ENDCHAR

STARTCHAR uni5FB7
ENCODING 24503
SWIDTH 750 0
DWIDTH 6 0
BBX 5 7 0 0
BITMAP
50
B8
58
B8
40
68
58
ENDCHAR

STARTCHAR uni5FC3
ENCODING 24515
SWIDTH 750 0
DWIDTH 6 0
BBX 5 7 0 0
BITMAP
40
20
40
50
C8
50
70
ENDCHAR

STARTCHAR uni5FC5
ENCODING 24517
SWIDTH 750 0
DWIDTH 6 0
BBX 5 7 0 0
BITMAP
40
28
48
D0
E8
40
B8
ENDCHAR

STARTCHAR uni5FC6
ENCODING 24518
SWIDTH 750 0
DWIDTH 6 0
BBX 5 7 0 0
BITMAP
58
48
E8
D0
60
68
58
ENDCHAR

STARTCHAR uni5FEB
ENCODING 24555
SWIDTH 750 0
DWIDTH 6 0
BBX 5 7 0 0
BITMAP
50
78
D8
F8
D0
50
68
ENDCHAR

STARTCHAR uni5FFD
ENCODING 24573
SWIDTH 750 0
DWIDTH 6 0
BBX 5 7 0 0
BITMAP
40
78
A8
28
50
C8
B8
ENDCHAR

STARTCHAR uni6001
ENCODING 24577
SWIDTH 750 0
DWIDTH 6 0
BBX 5 7 0 0
BITMAP
20
F8
50
C8
20
C8
B8
ENDCHAR

STARTCHAR uni600E
ENCODING 24590
SWIDTH 750 0
DWIDTH 6 0
BBX 5 7 0 0
BITMAP
40
78
A0
38
20
C8
B8
ENDCHAR

STARTCHAR uni6015
ENCODING 24597
SWIDTH 750 0
DWIDTH 6 0
BBX 5 7 0 0
BITMAP
50
60
F8
E8
78
68
78
ENDCHAR

STARTCHAR uni601D
ENCODING 24605
SWIDTH 750 0
DWIDTH 6 0
BBX 5 7 0 0
BITMAP
F8
E8
B8
F8
00
C8
B8
ENDCHAR

STARTCHAR uni6027
ENCODING 24615
SWIDTH 750 0
DWIDTH 6 0
BBX 5 7 0 0
BITMAP
50
70
F8
D0
F8
50
78
ENDCHAR

STARTCHAR uni602A
ENCODING 24618
SWIDTH 750 0
DWIDTH 6 0
BBX 5 7 0 0
BITMAP
78
68
D0
E8
78
50
78
ENDCHAR

STARTCHAR uni603B
ENCODING 24635
SWIDTH 750 0
DWIDTH 6 0
BBX 5 7 0 0
BITMAP
50
F8
88
F8
00
C8
B8
ENDCHAR

STARTCHAR uni6050
ENCODING 24656
SWIDTH 750 0
DWIDTH 6 0
BBX 5 7 0 0
BITMAP
F8
58
50
E8
00
C8
B8
ENDCHAR

STARTCHAR uni606F
ENCODING 24687
SWIDTH 750 0
DWIDTH 6 0
BBX 5 7 0 0
BITMAP
20
70
70
50
70
C8
B8
ENDCHAR

STARTCHAR uni60C5
ENCODING 24773
SWIDTH 750 0
DWIDTH 6 0
BBX 5 7 0 0
BITMAP
50
78
F8
C0
78
68
68
ENDCHAR

STARTCHAR uni60CA
ENCODING 24778
SWIDTH 750 0
DWIDTH 6 0
BBX 5 7 0 0
BITMAP
50
78
E8
D8
50
78
50
ENDCHAR

STARTCHAR uni60F3
ENCODING 24819
SWIDTH 750 0
DWIDTH 6 0
BBX 5 7 0 0
BITMAP
58
F8
78
D8
00
C8
B8
ENDCHAR

STARTCHAR uni610F
ENCODING 24847
SWIDTH 750 0
DWIDTH 6 0
BBX 5 7 0 0
BITMAP
20
F8
50
F8
70
C8
B8
ENDCHAR

STARTCHAR uni611F
ENCODING 24863
SWIDTH 750 0
DWIDTH 6 0
BBX 5 7 0 0
BITMAP
10
F8
90
E8
00
C8
B8
ENDCHAR

STARTCHAR uni6208
ENCODING 25096
SWIDTH 750 0
DWIDTH 6 0
BBX 5 7 0 0
BITMAP
50
40
F8
40
50
28
D8
ENDCHAR

STARTCHAR uni620A
ENCODING 25098
SWIDTH 750 0
DWIDTH 6 0
BBX 5 7 0 0
BITMAP
10
78
50
50
58
50
A8
ENDCHAR

STARTCHAR uni620C
ENCODING 25100
SWIDTH 750 0
DWIDTH 6 0
BBX 5 7 0 0
BITMAP
10
F8
90
F0
98
90
A8
ENDCHAR

STARTCHAR uni620E
ENCODING 25102
SWIDTH 750 0
DWIDTH 6 0
BBX 5 7 0 0
BITMAP
10
F8
50
F0
58
50
A8
ENDCHAR

STARTCHAR uni6210
ENCODING 25104
SWIDTH 750 0
DWIDTH 6 0
BBX 5 7 0 0
BITMAP
10
F8
90
F0
B8
D0
A8
ENDCHAR

STARTCHAR uni6211
ENCODING 25105
SWIDTH 750 0
DWIDTH 6 0
BBX 5 7 0 0
BITMAP
D8
50
F8
50
D8
70
C8
ENDCHAR

STARTCHAR uni6216
ENCODING 25110
SWIDTH 750 0
DWIDTH 6 0
BBX 5 7 0 0
BITMAP
10
F8
10
D0
D8
30
C8
ENDCHAR

STARTCHAR uni6218
ENCODING 25112
SWIDTH 750 0
DWIDTH 6 0
BBX 5 7 0 0
BITMAP
98
D0
B8
D0
58
70
C8
ENDCHAR

STARTCHAR uni6237
ENCODING 25143
SWIDTH 750 0
DWIDTH 6 0
BBX 5 7 0 0
BITMAP
20
78
48
78
40
40
80
ENDCHAR

STARTCHAR uni6240
ENCODING 25152
SWIDTH 750 0
DWIDTH 6 0
BBX 5 7 0 0
BITMAP
48
B0
E0
B8
E8
A8
A8
ENDCHAR

STARTCHAR uni624B
ENCODING 25163
SWIDTH 750 0
DWIDTH 6 0
BBX 5 7 0 0
BITMAP
70
20
F8
20
F8
20
60
ENDCHAR

STARTCHAR uni624D
ENCODING 25165
SWIDTH 750 0
DWIDTH 6 0
BBX 5 7 0 0
BITMAP
10
F8
10
30
50
90
30
ENDCHAR

STARTCHAR uni624E
ENCODING 25166
SWIDTH 750 0
DWIDTH 6 0
BBX 5 7 0 0
BITMAP
50
F0
50
70
D0
50
D8
ENDCHAR

STARTCHAR uni6251
ENCODING 25169
SWIDTH 750 0
DWIDTH 6 0
BBX 5 7 0 0
BITMAP
50
F0
50
70
D8
50
D0
ENDCHAR

STARTCHAR uni6252
ENCODING 25170
SWIDTH 750 0
DWIDTH 6 0
BBX 5 7 0 0
BITMAP
50
F0
50
70
D0
68
E8
ENDCHAR

STARTCHAR uni6253
ENCODING 25171
SWIDTH 750 0
DWIDTH 6 0
BBX 5 7 0 0
BITMAP
58
E8
48
68
C8
48
D8
ENDCHAR

STARTCHAR uni6254
ENCODING 25172
SWIDTH 750 0
DWIDTH 6 0
BBX 5 7 0 0
BITMAP
70
D0
58
68
C8
48
D8
ENDCHAR

STARTCHAR uni6258
ENCODING 25176
SWIDTH 750 0
DWIDTH 6 0
BBX 5 7 0 0
BITMAP
48
F0
50
78
D0
50
D8
ENDCHAR

STARTCHAR uni625B
ENCODING 25179
SWIDTH 750 0
DWIDTH 6 0
BBX 5 7 0 0
BITMAP
40
F8
50
70
D0
50
F8
ENDCHAR

STARTCHAR uni6263
ENCODING 25187
SWIDTH 750 0
DWIDTH 6 0
BBX 5 7 0 0
BITMAP
40
D8
68
68
E8
58
C0
ENDCHAR

STARTCHAR uni6267
ENCODING 25191
SWIDTH 750 0
DWIDTH 6 0
BBX 5 7 0 0
BITMAP
50
F8
58
78
D8
58
E8
ENDCHAR

STARTCHAR uni6269
ENCODING 25193
SWIDTH 750 0
DWIDTH 6 0
BBX 5 7 0 0
BITMAP
50
F8
60
60
E0
60
C0
ENDCHAR

STARTCHAR uni626B
ENCODING 25195
SWIDTH 750 0
DWIDTH 6 0
BBX 5 7 0 0
BITMAP
40
F8
48
78
C8
78
C0
ENDCHAR

STARTCHAR uni626C
ENCODING 25196
SWIDTH 750 0
DWIDTH 6 0
BBX 5 7 0 0
BITMAP
78
C8
50
68
D8
68
D8
ENDCHAR

STARTCHAR uni627E
ENCODING 25214
SWIDTH 750 0
DWIDTH 6 0
BBX 5 7 0 0
BITMAP
58
F0
78
50
D8
70
C8
ENDCHAR

STARTCHAR uni628A
ENCODING 25226
SWIDTH 750 0
DWIDTH 6 0
BBX 5 7 0 0
BITMAP
78
F8
68
78
E0
68
D8
ENDCHAR

STARTCHAR uni62A4
ENCODING 25252
SWIDTH 750 0
DWIDTH 6 0
BBX 5 7 0 0
BITMAP
50
F8
68
78
E0
60
C0
ENDCHAR

STARTCHAR uni62A5
ENCODING 25253
SWIDTH 750 0
DWIDTH 6 0
BBX 5 7 0 0
BITMAP
78
E8
60
78
E8
70
E8
ENDCHAR

STARTCHAR uni62C9
ENCODING 25289
SWIDTH 750 0
DWIDTH 6 0
BBX 5 7 0 0
BITMAP
50
F8
40
68
E8
50
F8
ENDCHAR

STARTCHAR uni62FF
ENCODING 25343
SWIDTH 750 0
DWIDTH 6 0
BBX 5 7 0 0
BITMAP
70
A8
50
70
70
F8
20
ENDCHAR

STARTCHAR uni6301
ENCODING 25345
SWIDTH 750 0
DWIDTH 6 0
BBX 5 7 0 0
BITMAP
50
F8
50
78
C8
68
D8
ENDCHAR

STARTCHAR uni6307
ENCODING 25351
SWIDTH 750 0
DWIDTH 6 0
BBX 5 7 0 0
BITMAP
68
F0
68
78
D8
68
F8
ENDCHAR

STARTCHAR uni6362
ENCODING 25442
SWIDTH 750 0
DWIDTH 6 0
BBX 5 7 0 0
BITMAP
58
68
D0
68
F8
50
E8
ENDCHAR

STARTCHAR uni6389
ENCODING 25481
SWIDTH 750 0
DWIDTH 6 0
BBX 5 7 0 0
BITMAP
58
D0
68
78
D0
78
D0
ENDCHAR

STARTCHAR uni638C
ENCODING 25484
SWIDTH 750 0
DWIDTH 6 0
BBX 5 7 0 0
BITMAP
A8
70
D8
70
70
F8
60
ENDCHAR

STARTCHAR uni63A2
ENCODING 25506
SWIDTH 750 0
DWIDTH 6 0
BBX 5 7 0 0
BITMAP
78
E8
50
78
D0
78
D0
ENDCHAR

STARTCHAR uni63A5
ENCODING 25509
SWIDTH 750 0
DWIDTH 6 0
BBX 5 7 0 0
BITMAP
50
F8
78
60
F8
70
E8
ENDCHAR

STARTCHAR uni63D0
ENCODING 25552
SWIDTH 750 0
DWIDTH 6 0
BBX 5 7 0 0
BITMAP
78
68
F8
50
78
F0
68
ENDCHAR

STARTCHAR uni6447
ENCODING 25671
SWIDTH 750 0
DWIDTH 6 0
BBX 5 7 0 0
BITMAP
58
E8
50
78
D0
58
F8
ENDCHAR

STARTCHAR uni652F
ENCODING 25903
SWIDTH 750 0
DWIDTH 6 0
BBX 5 7 0 0
BITMAP
20
F8
20
70
50
20
D8
ENDCHAR

STARTCHAR uni6536
ENCODING 25910
SWIDTH 750 0
DWIDTH 6 0
BBX 5 7 0 0
BITMAP
50
D8
E8
E8
D0
50
68
ENDCHAR

STARTCHAR uni653B
ENCODING 25915
SWIDTH 750 0
DWIDTH 6 0
BBX 5 7 0 0
BITMAP
10
D8
68
68
68
D0
28
ENDCHAR

STARTCHAR uni653E
ENCODING 25918
SWIDTH 750 0
DWIDTH 6 0
BBX 5 7 0 0
BITMAP
50
F8
58
78
78
B0
A8
ENDCHAR

STARTCHAR uni654C
ENCODING 25932
SWIDTH 750 0
DWIDTH 6 0
BBX 5 7 0 0
BITMAP
D0
58
E8
68
D0
90
E8
ENDCHAR

STARTCHAR uni6559
ENCODING 25945
SWIDTH 750 0
DWIDTH 6 0
BBX 5 7 0 0
BITMAP
50
D8
68
E8
28
D0
68
ENDCHAR

STARTCHAR uni6562
ENCODING 25954
SWIDTH 750 0
DWIDTH 6 0
BBX 5 7 0 0
BITMAP
D0
58
E8
68
50
F0
28
ENDCHAR

STARTCHAR uni6563
ENCODING 25955
SWIDTH 750 0
DWIDTH 6 0
BBX 5 7 0 0
BITMAP
B0
D8
E8
28
E8
F0
A8
ENDCHAR

STARTCHAR uni6570
ENCODING 25968
SWIDTH 750 0
DWIDTH 6 0
BBX 5 7 0 0
BITMAP
B0
58
A8
68
A8
50
A8
ENDCHAR

STARTCHAR uni6574
ENCODING 25972
SWIDTH 750 0
DWIDTH 6 0
BBX 5 7 0 0
BITMAP
58
E8
70
A8
F8
60
F8
ENDCHAR

STARTCHAR uni6587
ENCODING 25991
SWIDTH 750 0
DWIDTH 6 0
BBX 5 7 0 0
BITMAP
20
F8
50
50
20
50
88
ENDCHAR

STARTCHAR uni6597
ENCODING 26007
SWIDTH 750 0
DWIDTH 6 0
BBX 5 7 0 0
BITMAP
10
50
10
50
18
F0
10
ENDCHAR

STARTCHAR uni6599
ENCODING 26009
SWIDTH 750 0
DWIDTH 6 0
BBX 5 7 0 0
BITMAP
A8
58
E8
58
F8
C8
48
ENDCHAR

STARTCHAR uni65A4
ENCODING 26020
SWIDTH 750 0
DWIDTH 6 0
BBX 5 7 0 0
BITMAP
10
60
40
78
50
50
90
ENDCHAR

STARTCHAR uni65A5
ENCODING 26021
SWIDTH 750 0
DWIDTH 6 0
BBX 5 7 0 0
BITMAP
08
70
40
78
50
58
90
ENDCHAR

STARTCHAR uni65A9
ENCODING 26025
SWIDTH 750 0
DWIDTH 6 0
BBX 5 7 0 0
BITMAP
B8
E0
A0
F8
68
E8
48
ENDCHAR

STARTCHAR uni65AD
ENCODING 26029
SWIDTH 750 0
DWIDTH 6 0
BBX 5 7 0 0
BITMAP
88
D0
B0
D8
B8
98
E8
ENDCHAR

STARTCHAR uni65AF
ENCODING 26031
SWIDTH 750 0
DWIDTH 6 0
BBX 5 7 0 0
BITMAP
68
F0
60
58
E8
08
A8
ENDCHAR

STARTCHAR uni65B0
ENCODING 26032
SWIDTH 750 0
DWIDTH 6 0
BBX 5 7 0 0
BITMAP
48
F0
A0
F8
68
E8
48
ENDCHAR

STARTCHAR uni65B9
ENCODING 26041
SWIDTH 750 0
DWIDTH 6 0
BBX 5 7 0 0
BITMAP
20
F8
40
78
48
48
98
ENDCHAR

STARTCHAR uni65CF
ENCODING 26063
SWIDTH 750 0
DWIDTH 6 0
BBX 5 7 0 0
BITMAP
50
F8
60
58
78
B0
A8
ENDCHAR

STARTCHAR uni65E0
ENCODING 26080
SWIDTH 750 0
DWIDTH 6 0
BBX 5 7 0 0
BITMAP
70
20
20
F8
20
68
B8
ENDCHAR

STARTCHAR uni65E5
ENCODING 26085
SWIDTH 750 0
DWIDTH 6 0
BBX 5 7 0 0
BITMAP
F8
88
88
F8
88
88
F8
ENDCHAR

STARTCHAR uni65E6
ENCODING 26086
SWIDTH 750 0
DWIDTH 6 0
BBX 5 7 0 0
BITMAP
F8
88
F8
88
F0
00
F8
ENDCHAR

STARTCHAR uni65E7
ENCODING 26087
SWIDTH 750 0
DWIDTH 6 0
BBX 5 7 0 0
BITMAP
B8
A8
A8
B8
A8
A8
B8
ENDCHAR

STARTCHAR uni65E9
ENCODING 26089
SWIDTH 750 0
DWIDTH 6 0
BBX 5 7 0 0
BITMAP
70
70
50
70
F8
20
20
ENDCHAR

STARTCHAR uni65F6
ENCODING 26102
SWIDTH 750 0
DWIDTH 6 0
BBX 5 7 0 0
BITMAP
08
F8
A8
E8
B8
E8
10
ENDCHAR

STARTCHAR uni660E
ENCODING 26126
SWIDTH 750 0
DWIDTH 6 0
BBX 5 7 0 0
BITMAP
38
E8
F8
A8
F8
28
58
ENDCHAR

STARTCHAR uni6613
ENCODING 26131
SWIDTH 750 0
DWIDTH 6 0
BBX 5 7 0 0
BITMAP
F0
D0
B0
40
78
A8
58
ENDCHAR

STARTCHAR uni661F
ENCODING 26143
SWIDTH 750 0
DWIDTH 6 0
BBX 5 7 0 0
BITMAP
70
50
70
A0
F0
20
F8
ENDCHAR

STARTCHAR uni662F
ENCODING 26159
SWIDTH 750 0
DWIDTH 6 0
BBX 5 7 0 0
BITMAP
70
50
F8
20
70
60
98
ENDCHAR

STARTCHAR uni663E
ENCODING 26174
SWIDTH 750 0
DWIDTH 6 0
BBX 5 7 0 0
BITMAP
78
88
F8
50
D8
50
F8
ENDCHAR

STARTCHAR uni666F
ENCODING 26223
SWIDTH 750 0
DWIDTH 6 0
BBX 5 7 0 0
BITMAP
70
50
20
F8
50
20
A8
ENDCHAR

STARTCHAR uni6697
ENCODING 26263
SWIDTH 750 0
DWIDTH 6 0
BBX 5 7 0 0
BITMAP
10
F8
A8
F8
C0
F8
38
ENDCHAR

STARTCHAR uni66B4
ENCODING 26292
SWIDTH 750 0
DWIDTH 6 0
BBX 5 7 0 0
BITMAP
70
50
F8
50
A8
70
A8
ENDCHAR

STARTCHAR uni66F0
ENCODING 26352
SWIDTH 750 0
DWIDTH 6 0
BBX 5 7 0 0
BITMAP
00
F8
88
E8
88
F8
88
ENDCHAR

STARTCHAR uni66F4
ENCODING 26356
SWIDTH 750 0
DWIDTH 6 0
BBX 5 7 0 0
BITMAP
F8
20
F8
F8
A0
60
D8
ENDCHAR

STARTCHAR uni6700
ENCODING 26368
SWIDTH 750 0
DWIDTH 6 0
BBX 5 7 0 0
BITMAP
70
50
F8
60
78
F0
28
ENDCHAR

STARTCHAR uni6708
ENCODING 26376
SWIDTH 750 0
DWIDTH 6 0
BBX 5 7 0 0
BITMAP
78
48
78
48
78
48
98
ENDCHAR

STARTCHAR uni6709
ENCODING 26377
SWIDTH 750 0
DWIDTH 6 0
BBX 5 7 0 0
BITMAP
40
F8
50
F0
50
70
50
ENDCHAR

STARTCHAR uni671B
ENCODING 26395
SWIDTH 750 0
DWIDTH 6 0
BBX 5 7 0 0
BITMAP
58
E8
98
68
70
20
F8
ENDCHAR

STARTCHAR uni671D
ENCODING 26397
SWIDTH 750 0
DWIDTH 6 0
BBX 5 7 0 0
BITMAP
F8
68
F8
A8
78
E8
58
ENDCHAR

STARTCHAR uni671F
ENCODING 26399
SWIDTH 750 0
DWIDTH 6 0
BBX 5 7 0 0
BITMAP
58
F8
68
58
E8
18
A8
ENDCHAR

STARTCHAR uni6728
ENCODING 26408
SWIDTH 750 0
DWIDTH 6 0
BBX 5 7 0 0
BITMAP
20
F8
20
70
A8
20
20
ENDCHAR

STARTCHAR uni672A
ENCODING 26410
SWIDTH 750 0
DWIDTH 6 0
BBX 5 7 0 0
BITMAP
20
70
20
F8
70
A8
20
ENDCHAR

STARTCHAR uni672B
ENCODING 26411
SWIDTH 750 0
DWIDTH 6 0
BBX 5 7 0 0
BITMAP
20
F8
20
70
20
70
A8
ENDCHAR

STARTCHAR uni672C
ENCODING 26412
SWIDTH 750 0
DWIDTH 6 0
BBX 5 7 0 0
BITMAP
20
F8
20
70
A8
70
20
ENDCHAR

STARTCHAR uni672F
ENCODING 26415
SWIDTH 750 0
DWIDTH 6 0
BBX 5 7 0 0
BITMAP
28
20
F8
20
70
A8
20
ENDCHAR

STARTCHAR uni6734
ENCODING 26420
SWIDTH 750 0
DWIDTH 6 0
BBX 5 7 0 0
BITMAP
50
F0
50
D8
F0
50
50
ENDCHAR

STARTCHAR uni673A
ENCODING 26426
SWIDTH 750 0
DWIDTH 6 0
BBX 5 7 0 0
BITMAP
40
F8
58
F8
D8
58
68
ENDCHAR

STARTCHAR uni673D
ENCODING 26429
SWIDTH 750 0
DWIDTH 6 0
BBX 5 7 0 0
BITMAP
78
D0
50
D8
E8
48
58
ENDCHAR

STARTCHAR uni6740
ENCODING 26432
SWIDTH 750 0
DWIDTH 6 0
BBX 5 7 0 0
BITMAP
50
20
50
F8
70
A8
60
ENDCHAR

STARTCHAR uni6743
ENCODING 26435
SWIDTH 750 0
DWIDTH 6 0
BBX 5 7 0 0
BITMAP
58
E8
68
D0
D0
68
68
ENDCHAR

STARTCHAR uni674E
ENCODING 26446
SWIDTH 750 0
DWIDTH 6 0
BBX 5 7 0 0
BITMAP
20
F8
70
B8
10
F8
20
ENDCHAR

STARTCHAR uni6751
ENCODING 26449
SWIDTH 750 0
DWIDTH 6 0
BBX 5 7 0 0
BITMAP
48
F8
48
E8
D8
48
58
ENDCHAR

STARTCHAR uni6761
ENCODING 26465
SWIDTH 750 0
DWIDTH 6 0
BBX 5 7 0 0
BITMAP
30
50
20
D8
20
70
A8
ENDCHAR

STARTCHAR uni6765
ENCODING 26469
SWIDTH 750 0
DWIDTH 6 0
BBX 5 7 0 0
BITMAP
20
F8
68
F8
20
70
A8
ENDCHAR

STARTCHAR uni6781
ENCODING 26497
SWIDTH 750 0
DWIDTH 6 0
BBX 5 7 0 0
BITMAP
58
E8
50
F8
E8
50
68
ENDCHAR

STARTCHAR uni6797
ENCODING 26519
SWIDTH 750 0
DWIDTH 6 0
BBX 5 7 0 0
BITMAP
50
F8
50
F0
D8
50
50
ENDCHAR

STARTCHAR uni679C
ENCODING 26524
SWIDTH 750 0
DWIDTH 6 0
BBX 5 7 0 0
BITMAP
F8
A8
F8
A8
F8
70
A8
ENDCHAR

STARTCHAR uni67AA
ENCODING 26538
SWIDTH 750 0
DWIDTH 6 0
BBX 5 7 0 0
BITMAP
50
E8
40
F8
E8
60
58
ENDCHAR

STARTCHAR uni6837
ENCODING 26679
SWIDTH 750 0
DWIDTH 6 0
BBX 5 7 0 0
BITMAP
68
F8
50
F8
D0
78
50
ENDCHAR

STARTCHAR uni6839
ENCODING 26681
SWIDTH 750 0
DWIDTH 6 0
BBX 5 7 0 0
BITMAP
78
E8
78
E0
E8
70
68
ENDCHAR

STARTCHAR uni683C
ENCODING 26684
SWIDTH 750 0
DWIDTH 6 0
BBX 5 7 0 0
BITMAP
58
E8
50
E8
F8
68
78
ENDCHAR

STARTCHAR uni68A6
ENCODING 26790
SWIDTH 750 0
DWIDTH 6 0
BBX 5 7 0 0
BITMAP
50
F8
50
B8
50
20
C0
ENDCHAR

STARTCHAR uni695A
ENCODING 26970
SWIDTH 750 0
DWIDTH 6 0
BBX 5 7 0 0
BITMAP
50
F8
A8
50
F8
60
B8
ENDCHAR

STARTCHAR uni6B20
ENCODING 27424
SWIDTH 750 0
DWIDTH 6 0
BBX 5 7 0 0
BITMAP
40
78
88
20
20
50
88
ENDCHAR

STARTCHAR uni6B21
ENCODING 27425
SWIDTH 750 0
DWIDTH 6 0
BBX 5 7 0 0
BITMAP
20
B8
48
10
50
90
A8
ENDCHAR

STARTCHAR uni6B62
ENCODING 27490
SWIDTH 750 0
DWIDTH 6 0
BBX 5 7 0 0
BITMAP
20
20
B8
A0
A0
A0
F8
ENDCHAR

STARTCHAR uni6B63
ENCODING 27491
SWIDTH 750 0
DWIDTH 6 0
BBX 5 7 0 0
BITMAP
F8
20
20
B8
A0
A0
F8
ENDCHAR

STARTCHAR uni6B64
ENCODING 27492
SWIDTH 750 0
DWIDTH 6 0
BBX 5 7 0 0
BITMAP
50
50
F8
D0
D0
F0
98
ENDCHAR

STARTCHAR uni6B65
ENCODING 27493
SWIDTH 750 0
DWIDTH 6 0
BBX 5 7 0 0
BITMAP
30
A0
F8
20
A8
30
C0
ENDCHAR

STARTCHAR uni6B66
ENCODING 27494
SWIDTH 750 0
DWIDTH 6 0
BBX 5 7 0 0
BITMAP
D8
10
F8
50
F0
D0
E8
ENDCHAR

STARTCHAR uni6B79
ENCODING 27513
SWIDTH 750 0
DWIDTH 6 0
BBX 5 7 0 0
BITMAP
F8
20
78
C8
30
20
C0
ENDCHAR

STARTCHAR uni6B7B
ENCODING 27515
SWIDTH 750 0
DWIDTH 6 0
BBX 5 7 0 0
BITMAP
F8
50
70
B8
70
50
98
ENDCHAR

STARTCHAR uni6BB5
ENCODING 27573
SWIDTH 750 0
DWIDTH 6 0
BBX 5 7 0 0
BITMAP
58
A8
C0
B8
E8
90
A8
ENDCHAR

STARTCHAR uni6BCD
ENCODING 27597
SWIDTH 750 0
DWIDTH 6 0
BBX 5 7 0 0
BITMAP
70
90
B0
F8
90
F8
10
ENDCHAR

STARTCHAR uni6BCF
ENCODING 27599
SWIDTH 750 0
DWIDTH 6 0
BBX 5 7 0 0
BITMAP
78
80
78
68
D8
78
08
ENDCHAR

STARTCHAR uni6BD4
ENCODING 27604
SWIDTH 750 0
DWIDTH 6 0
BBX 5 7 0 0
BITMAP
A0
A8
F0
A0
A0
E8
B8
ENDCHAR

STARTCHAR uni6BDB
ENCODING 27611
SWIDTH 750 0
DWIDTH 6 0
BBX 5 7 0 0
BITMAP
10
60
38
E0
38
E0
38
ENDCHAR

STARTCHAR uni6C0F
ENCODING 27663
SWIDTH 750 0
DWIDTH 6 0
BBX 5 7 0 0
BITMAP
10
E0
A0
F8
A0
90
C8
ENDCHAR

STARTCHAR uni6C11
ENCODING 27665
SWIDTH 750 0
DWIDTH 6 0
BBX 5 7 0 0
BITMAP
F8
88
F8
A0
F8
90
C8
ENDCHAR

STARTCHAR uni6C14
ENCODING 27668
SWIDTH 750 0
DWIDTH 6 0
BBX 5 7 0 0
BITMAP
80
F0
60
F0
10
10
08
ENDCHAR

STARTCHAR uni6C34
ENCODING 27700
SWIDTH 750 0
DWIDTH 6 0
BBX 5 7 0 0
BITMAP
20
20
E8
70
B0
28
60
ENDCHAR

STARTCHAR uni6C38
ENCODING 27704
SWIDTH 750 0
DWIDTH 6 0
BBX 5 7 0 0
BITMAP
60
00
60
E8
70
A8
60
ENDCHAR

STARTCHAR uni6C41
ENCODING 27713
SWIDTH 750 0
DWIDTH 6 0
BBX 5 7 0 0
BITMAP
90
10
B8
10
90
90
90
ENDCHAR

STARTCHAR uni6C47
ENCODING 27719
SWIDTH 750 0
DWIDTH 6 0
BBX 5 7 0 0
BITMAP
B8
20
A0
20
A0
A0
B8
ENDCHAR

STARTCHAR uni6C49
ENCODING 27721
SWIDTH 750 0
DWIDTH 6 0
BBX 5 7 0 0
BITMAP
B8
28
A8
10
90
A8
A8
ENDCHAR

STARTCHAR uni6C89
ENCODING 27785
SWIDTH 750 0
DWIDTH 6 0
BBX 5 7 0 0
BITMAP
B8
48
B0
30
B0
B0
58
ENDCHAR

STARTCHAR uni6CA1
ENCODING 27809
SWIDTH 750 0
DWIDTH 6 0
BBX 5 7 0 0
BITMAP
B8
28
80
38
A8
90
A8
ENDCHAR

STARTCHAR uni6CD5
ENCODING 27861
SWIDTH 750 0
DWIDTH 6 0
BBX 5 7 0 0
BITMAP
90
38
90
78
90
A8
B8
ENDCHAR

STARTCHAR uni6CE2
ENCODING 27874
SWIDTH 750 0
DWIDTH 6 0
BBX 5 7 0 0
BITMAP
90
78
D0
78
E8
D0
A8
ENDCHAR

STARTCHAR uni6CE8
ENCODING 27880
SWIDTH 750 0
DWIDTH 6 0
BBX 5 7 0 0
BITMAP
90
00
B8
10
B8
90
B8
ENDCHAR

STARTCHAR uni6D3B
ENCODING 27963
SWIDTH 750 0
DWIDTH 6 0
BBX 5 7 0 0
BITMAP
B8
10
B8
10
B8
A8
B8
ENDCHAR

STARTCHAR uni6D41
ENCODING 27969
SWIDTH 750 0
DWIDTH 6 0
BBX 5 7 0 0
BITMAP
90
78
A0
78
80
A8
A8
ENDCHAR

STARTCHAR uni6D77
ENCODING 28023
SWIDTH 750 0
DWIDTH 6 0
BBX 5 7 0 0
BITMAP
A0
58
E8
78
D8
E8
90
ENDCHAR

STARTCHAR uni6D88
ENCODING 28040
SWIDTH 750 0
DWIDTH 6 0
BBX 5 7 0 0
BITMAP
A8
10
B8
28
B8
B8
A8
ENDCHAR

STARTCHAR uni6DE1
ENCODING 28129
SWIDTH 750 0
DWIDTH 6 0
BBX 5 7 0 0
BITMAP
A8
10
A8
10
B8
90
A8
ENDCHAR

STARTCHAR uni6DF1
ENCODING 28145
SWIDTH 750 0
DWIDTH 6 0
BBX 5 7 0 0
BITMAP
F8
68
90
78
B0
D8
90
ENDCHAR

STARTCHAR uni6E05
ENCODING 28165
SWIDTH 750 0
DWIDTH 6 0
BBX 5 7 0 0
BITMAP
90
38
B8
00
B8
B8
A8
ENDCHAR

STARTCHAR uni6E38
ENCODING 28216
SWIDTH 750 0
DWIDTH 6 0
BBX 5 7 0 0
BITMAP
B0
78
A0
38
B0
D8
50
ENDCHAR

STARTCHAR uni6E90
ENCODING 28304
SWIDTH 750 0
DWIDTH 6 0
BBX 5 7 0 0
BITMAP
F8
50
E8
78
D0
B8
90
ENDCHAR

STARTCHAR uni6EE1
ENCODING 28385
SWIDTH 750 0
DWIDTH 6 0
BBX 5 7 0 0
BITMAP
B0
78
B0
78
D8
E8
48
ENDCHAR

STARTCHAR uni6F9C
ENCODING 28572
SWIDTH 750 0
DWIDTH 6 0
BBX 5 7 0 0
BITMAP
58
88
78
F8
58
E8
48
ENDCHAR

STARTCHAR uni706B
ENCODING 28779
SWIDTH 750 0
DWIDTH 6 0
BBX 5 7 0 0
BITMAP
20
20
A8
B0
20
50
88
ENDCHAR

STARTCHAR uni706D
ENCODING 28781
SWIDTH 750 0
DWIDTH 6 0
BBX 5 7 0 0
BITMAP
F8
20
A8
B0
20
50
88
ENDCHAR

STARTCHAR uni7070
ENCODING 28784
SWIDTH 750 0
DWIDTH 6 0
BBX 5 7 0 0
BITMAP
40
F8
50
58
70
50
A8
ENDCHAR

STARTCHAR uni7075
ENCODING 28789
SWIDTH 750 0
DWIDTH 6 0
BBX 5 7 0 0
BITMAP
F8
08
F8
20
A8
50
88
ENDCHAR

STARTCHAR uni70B9
ENCODING 28857
SWIDTH 750 0
DWIDTH 6 0
BBX 5 7 0 0
BITMAP
20
38
20
50
70
00
A8
ENDCHAR

STARTCHAR uni7136
ENCODING 28982
SWIDTH 750 0
DWIDTH 6 0
BBX 5 7 0 0
BITMAP
50
78
B0
50
A8
00
A8
ENDCHAR

STARTCHAR uni7206
ENCODING 29190
SWIDTH 750 0
DWIDTH 6 0
BBX 5 7 0 0
BITMAP
78
78
D0
E8
50
68
90
ENDCHAR

STARTCHAR uni722A
ENCODING 29226
SWIDTH 750 0
DWIDTH 6 0
BBX 5 7 0 0
BITMAP
08
F0
A8
A8
A8
A8
A8
ENDCHAR

STARTCHAR uni7236
ENCODING 29238
SWIDTH 750 0
DWIDTH 6 0
BBX 5 7 0 0
BITMAP
50
88
50
50
20
50
88
ENDCHAR

STARTCHAR uni7247
ENCODING 29255
SWIDTH 750 0
DWIDTH 6 0
BBX 5 7 0 0
BITMAP
50
50
78
40
78
48
88
ENDCHAR

STARTCHAR uni7259
ENCODING 29273
SWIDTH 750 0
DWIDTH 6 0
BBX 5 7 0 0
BITMAP
F8
50
50
F8
30
D0
30
ENDCHAR

STARTCHAR uni725B
ENCODING 29275
SWIDTH 750 0
DWIDTH 6 0
BBX 5 7 0 0
BITMAP
60
70
A0
20
F8
20
20
ENDCHAR

STARTCHAR uni7269
ENCODING 29289
SWIDTH 750 0
DWIDTH 6 0
BBX 5 7 0 0
BITMAP
50
F8
D8
68
D8
68
58
ENDCHAR

STARTCHAR uni7279
ENCODING 29305
SWIDTH 750 0
DWIDTH 6 0
BBX 5 7 0 0
BITMAP
90
F8
D0
78
C8
68
58
ENDCHAR

STARTCHAR uni72AC
ENCODING 29356
SWIDTH 750 0
DWIDTH 6 0
BBX 5 7 0 0
BITMAP
28
20
F8
20
20
50
88
ENDCHAR

STARTCHAR uni72AF
ENCODING 29359
SWIDTH 750 0
DWIDTH 6 0
BBX 5 7 0 0
BITMAP
B8
68
E8
68
E0
68
B8
ENDCHAR

STARTCHAR uni72B6
ENCODING 29366
SWIDTH 750 0
DWIDTH 6 0
BBX 5 7 0 0
BITMAP
50
58
D0
78
D0
50
68
ENDCHAR

STARTCHAR uni72C2
ENCODING 29378
SWIDTH 750 0
DWIDTH 6 0
BBX 5 7 0 0
BITMAP
B8
50
D0
78
D0
50
B8
ENDCHAR

STARTCHAR uni7384
ENCODING 29572
SWIDTH 750 0
DWIDTH 6 0
BBX 5 7 0 0
BITMAP
20
F8
40
D0
20
50
E8
ENDCHAR

STARTCHAR uni7389
ENCODING 29577
SWIDTH 750 0
DWIDTH 6 0
BBX 5 7 0 0
BITMAP
F8
20
20
70
28
20
F8
ENDCHAR

STARTCHAR uni738B
ENCODING 29579
SWIDTH 750 0
DWIDTH 6 0
BBX 5 7 0 0
BITMAP
F8
20
20
70
20
20
F8
ENDCHAR

STARTCHAR uni73A9
ENCODING 29609
SWIDTH 750 0
DWIDTH 6 0
BBX 5 7 0 0
BITMAP
38
C0
78
D0
50
D0
28
ENDCHAR

STARTCHAR uni73B0
ENCODING 29616
SWIDTH 750 0
DWIDTH 6 0
BBX 5 7 0 0
BITMAP
38
E8
68
E8
50
B0
58
ENDCHAR

STARTCHAR uni7406
ENCODING 29702
SWIDTH 750 0
DWIDTH 6 0
BBX 5 7 0 0
BITMAP
38
F8
78
D0
78
D0
38
ENDCHAR

STARTCHAR uni74DC
ENCODING 29916
SWIDTH 750 0
DWIDTH 6 0
BBX 5 7 0 0
BITMAP
08
F0
B0
A8
A8
A8
B8
ENDCHAR

STARTCHAR uni74E6
ENCODING 29926
SWIDTH 750 0
DWIDTH 6 0
BBX 5 7 0 0
BITMAP
F8
40
70
50
B0
90
D8
ENDCHAR

STARTCHAR uni7518
ENCODING 29976
SWIDTH 750 0
DWIDTH 6 0
BBX 5 7 0 0
BITMAP
50
F8
50
70
50
70
50
ENDCHAR

STARTCHAR uni751A
ENCODING 29978
SWIDTH 750 0
DWIDTH 6 0
BBX 5 7 0 0
BITMAP
50
F8
50
70
F8
50
78
ENDCHAR

STARTCHAR uni751F
ENCODING 29983
SWIDTH 750 0
DWIDTH 6 0
BBX 5 7 0 0
BITMAP
20
F0
A0
20
70
20
F8
ENDCHAR

STARTCHAR uni7528
ENCODING 29992
SWIDTH 750 0
DWIDTH 6 0
BBX 5 7 0 0
BITMAP
F8
A8
F8
A8
F8
A8
B8
ENDCHAR

STARTCHAR uni7529
ENCODING 29993
SWIDTH 750 0
DWIDTH 6 0
BBX 5 7 0 0
BITMAP
F8
A8
F8
A8
F8
A0
B8
ENDCHAR

STARTCHAR uni7530
ENCODING 30000
SWIDTH 750 0
DWIDTH 6 0
BBX 5 7 0 0
BITMAP
F8
A8
A8
F8
A8
A8
F8
ENDCHAR

STARTCHAR uni7531
ENCODING 30001
SWIDTH 750 0
DWIDTH 6 0
BBX 5 7 0 0
BITMAP
20
20
F8
A8
F8
A8
F8
ENDCHAR

STARTCHAR uni7532
ENCODING 30002
SWIDTH 750 0
DWIDTH 6 0
BBX 5 7 0 0
BITMAP
F8
A8
F8
A8
F8
20
20
ENDCHAR

STARTCHAR uni7533
ENCODING 30003
SWIDTH 750 0
DWIDTH 6 0
BBX 5 7 0 0
BITMAP
20
F8
A8
F8
A8
F8
20
ENDCHAR

STARTCHAR uni7535
ENCODING 30005
SWIDTH 750 0
DWIDTH 6 0
BBX 5 7 0 0
BITMAP
20
F8
A8
F8
A8
F0
38
ENDCHAR

STARTCHAR uni754C
ENCODING 30028
SWIDTH 750 0
DWIDTH 6 0
BBX 5 7 0 0
BITMAP
78
B8
F8
50
D8
50
90
ENDCHAR

STARTCHAR uni7559
ENCODING 30041
SWIDTH 750 0
DWIDTH 6 0
BBX 5 7 0 0
BITMAP
38
D8
98
E8
70
50
70
ENDCHAR

STARTCHAR uni7591
ENCODING 30097
SWIDTH 750 0
DWIDTH 6 0
BBX 5 7 0 0
BITMAP
98
E8
98
70
F8
50
A8
ENDCHAR

STARTCHAR uni767D
ENCODING 30333
SWIDTH 750 0
DWIDTH 6 0
BBX 5 7 0 0
BITMAP
40
F8
88
F8
88
F8
88
ENDCHAR

STARTCHAR uni767E
ENCODING 30334
SWIDTH 750 0
DWIDTH 6 0
BBX 5 7 0 0
BITMAP
F8
40
F8
88
F8
88
F8
ENDCHAR

STARTCHAR uni7684
ENCODING 30340
SWIDTH 750 0
DWIDTH 6 0
BBX 5 7 0 0
BITMAP
50
F8
A8
F8
A8
E8
10
ENDCHAR

STARTCHAR uni7687
ENCODING 30343
SWIDTH 750 0
DWIDTH 6 0
BBX 5 7 0 0
BITMAP
20
70
50
F8
70
20
F8
ENDCHAR

STARTCHAR uni76AE
ENCODING 30382
SWIDTH 750 0
DWIDTH 6 0
BBX 5 7 0 0
BITMAP
20
F8
A8
F0
D0
A0
D8
ENDCHAR

STARTCHAR uni76BF
ENCODING 30399
SWIDTH 750 0
DWIDTH 6 0
BBX 5 7 0 0
BITMAP
00
78
68
68
68
F8
00
ENDCHAR

STARTCHAR uni76EE
ENCODING 30446
SWIDTH 750 0
DWIDTH 6 0
BBX 5 7 0 0
BITMAP
F8
88
F8
88
F8
88
F8
ENDCHAR

STARTCHAR uni76F4
ENCODING 30452
SWIDTH 750 0
DWIDTH 6 0
BBX 5 7 0 0
BITMAP
20
F8
70
50
70
50
F8
ENDCHAR

STARTCHAR uni76F8
ENCODING 30456
SWIDTH 750 0
DWIDTH 6 0
BBX 5 7 0 0
BITMAP
40
F8
58
E8
D8
58
40
ENDCHAR

STARTCHAR uni770B
ENCODING 30475
SWIDTH 750 0
DWIDTH 6 0
BBX 5 7 0 0
BITMAP
10
60
30
F8
40
B0
30
ENDCHAR

STARTCHAR uni771F
ENCODING 30495
SWIDTH 750 0
DWIDTH 6 0
BBX 5 7 0 0
BITMAP
20
F8
70
50
F8
50
88
ENDCHAR

STARTCHAR uni773C
ENCODING 30524
SWIDTH 750 0
DWIDTH 6 0
BBX 5 7 0 0
BITMAP
F8
A8
F8
E0
A8
F0
28
ENDCHAR

STARTCHAR uni7740
ENCODING 30528
SWIDTH 750 0
DWIDTH 6 0
BBX 5 7 0 0
BITMAP
48
F8
30
F8
68
D8
78
ENDCHAR

STARTCHAR uni77AC
ENCODING 30636
SWIDTH 750 0
DWIDTH 6 0
BBX 5 7 0 0
BITMAP
38
F0
F8
E8
B0
D8
28
ENDCHAR

STARTCHAR uni77DB
ENCODING 30683
SWIDTH 750 0
DWIDTH 6 0
BBX 5 7 0 0
BITMAP
F0
50
20
F8
68
A0
60
ENDCHAR

STARTCHAR uni77E2
ENCODING 30690
SWIDTH 750 0
DWIDTH 6 0
BBX 5 7 0 0
BITMAP
40
70
A0
F8
20
50
88
ENDCHAR

STARTCHAR uni77E5
ENCODING 30693
SWIDTH 750 0
DWIDTH 6 0
BBX 5 7 0 0
BITMAP
80
F8
58
F8
58
78
A0
ENDCHAR

STARTCHAR uni77F3
ENCODING 30707
SWIDTH 750 0
DWIDTH 6 0
BBX 5 7 0 0
BITMAP
F8
20
40
78
C8
48
70
ENDCHAR

STARTCHAR uni7834
ENCODING 30772
SWIDTH 750 0
DWIDTH 6 0
BBX 5 7 0 0
BITMAP
10
F8
70
B8
68
50
28
ENDCHAR

STARTCHAR uni786E
ENCODING 30830
SWIDTH 750 0
DWIDTH 6 0
BBX 5 7 0 0
BITMAP
18
E8
50
A8
78
78
28
ENDCHAR

STARTCHAR uni788E
ENCODING 30862
SWIDTH 750 0
DWIDTH 6 0
BBX 5 7 0 0
BITMAP
10
F8
50
A8
50
78
10
ENDCHAR

STARTCHAR uni793A
ENCODING 31034
SWIDTH 750 0
DWIDTH 6 0
BBX 5 7 0 0
BITMAP
70
00
F8
20
A8
A8
60
ENDCHAR

STARTCHAR uni793C
ENCODING 31036
SWIDTH 750 0
DWIDTH 6 0
BBX 5 7 0 0
BITMAP
50
F0
30
50
F0
50
58
ENDCHAR

STARTCHAR uni795E
ENCODING 31070
SWIDTH 750 0
DWIDTH 6 0
BBX 5 7 0 0
BITMAP
50
F8
68
B8
68
78
50
ENDCHAR

STARTCHAR uni798F
ENCODING 31119
SWIDTH 750 0
DWIDTH 6 0
BBX 5 7 0 0
BITMAP
B8
10
C0
78
D8
E8
78
ENDCHAR

STARTCHAR uni79BB
ENCODING 31163
SWIDTH 750 0
DWIDTH 6 0
BBX 5 7 0 0
BITMAP
20
F8
70
50
A8
D8
88
ENDCHAR

STARTCHAR uni79BE
ENCODING 31166
SWIDTH 750 0
DWIDTH 6 0
BBX 5 7 0 0
BITMAP
10
60
20
F8
70
A8
20
ENDCHAR

STARTCHAR uni79CD
ENCODING 31181
SWIDTH 750 0
DWIDTH 6 0
BBX 5 7 0 0
BITMAP
D0
50
F8
68
F8
D0
50
ENDCHAR

STARTCHAR uni79D8
ENCODING 31192
SWIDTH 750 0
DWIDTH 6 0
BBX 5 7 0 0
BITMAP
D0
48
D0
70
F8
D0
68
ENDCHAR

STARTCHAR uni7A0B
ENCODING 31243
SWIDTH 750 0
DWIDTH 6 0
BBX 5 7 0 0
BITMAP
D8
68
F8
50
F8
D0
78
ENDCHAR

STARTCHAR uni7A74
ENCODING 31348
SWIDTH 750 0
DWIDTH 6 0
BBX 5 7 0 0
BITMAP
20
F8
88
50
50
50
88
ENDCHAR

STARTCHAR uni7A79
ENCODING 31353
SWIDTH 750 0
DWIDTH 6 0
BBX 5 7 0 0
BITMAP
20
F8
D8
30
40
78
08
ENDCHAR

STARTCHAR uni7A7A
ENCODING 31354
SWIDTH 750 0
DWIDTH 6 0
BBX 5 7 0 0
BITMAP
20
F8
D8
00
70
20
F8
ENDCHAR

STARTCHAR uni7A7F
ENCODING 31359
SWIDTH 750 0
DWIDTH 6 0
BBX 5 7 0 0
BITMAP
20
F8
D8
70
F8
50
B0
ENDCHAR

STARTCHAR uni7A81
ENCODING 31361
SWIDTH 750 0
DWIDTH 6 0
BBX 5 7 0 0
BITMAP
20
F8
D8
30
F8
50
88
ENDCHAR

STARTCHAR uni7ACB
ENCODING 31435
SWIDTH 750 0
DWIDTH 6 0
BBX 5 7 0 0
BITMAP
20
F8
50
50
50
20
F8
ENDCHAR

STARTCHAR uni7AD9
ENCODING 31449
SWIDTH 750 0
DWIDTH 6 0
BBX 5 7 0 0
BITMAP
50
F0
18
B0
58
E8
38
ENDCHAR

STARTCHAR uni7ADF
ENCODING 31455
SWIDTH 750 0
DWIDTH 6 0
BBX 5 7 0 0
BITMAP
20
F8
50
F8
70
70
98
ENDCHAR

STARTCHAR uni7AE0
ENCODING 31456
SWIDTH 750 0
DWIDTH 6 0
BBX 5 7 0 0
BITMAP
20
F8
50
F8
70
F8
20
ENDCHAR

STARTCHAR uni7B11
ENCODING 31505
SWIDTH 750 0
DWIDTH 6 0
BBX 5 7 0 0
BITMAP
68
B0
00
70
F8
20
D8
ENDCHAR

STARTCHAR uni7B2C
ENCODING 31532
SWIDTH 750 0
DWIDTH 6 0
BBX 5 7 0 0
BITMAP
68
B0
70
F0
F8
68
A8
ENDCHAR

STARTCHAR uni7B49
ENCODING 31561
SWIDTH 750 0
DWIDTH 6 0
BBX 5 7 0 0
BITMAP
68
B0
00
70
F8
50
30
ENDCHAR

STARTCHAR uni7B80
ENCODING 31616
SWIDTH 750 0
DWIDTH 6 0
BBX 5 7 0 0
BITMAP
68
B0
00
B8
88
A8
88
ENDCHAR

STARTCHAR uni7B97
ENCODING 31639
SWIDTH 750 0
DWIDTH 6 0
BBX 5 7 0 0
BITMAP
68
B0
70
50
70
F8
50
ENDCHAR

STARTCHAR uni7BA1
ENCODING 31649
SWIDTH 750 0
DWIDTH 6 0
BBX 5 7 0 0
BITMAP
68
B0
00
F8
E8
50
70
ENDCHAR

STARTCHAR uni7C7B
ENCODING 31867
SWIDTH 750 0
DWIDTH 6 0
BBX 5 7 0 0
BITMAP
A8
70
A8
20
F8
50
88
ENDCHAR

STARTCHAR uni7CBE
ENCODING 31934
SWIDTH 750 0
DWIDTH 6 0
BBX 5 7 0 0
BITMAP
90
78
F8
40
E8
F8
68
ENDCHAR

STARTCHAR uni7CFB
ENCODING 31995
SWIDTH 750 0
DWIDTH 6 0
BBX 5 7 0 0
BITMAP
10
E0
50
68
F8
20
A8
ENDCHAR

STARTCHAR uni7D27
ENCODING 32039
SWIDTH 750 0
DWIDTH 6 0
BBX 5 7 0 0
BITMAP
B8
A8
90
68
F0
20
A8
ENDCHAR

STARTCHAR uni7EA0
ENCODING 32416
SWIDTH 750 0
DWIDTH 6 0
BBX 5 7 0 0
BITMAP
48
A8
68
A8
F8
08
C8
ENDCHAR

STARTCHAR uni7EA2
ENCODING 32418
SWIDTH 750 0
DWIDTH 6 0
BBX 5 7 0 0
BITMAP
40
B8
50
90
D0
50
B8
ENDCHAR

STARTCHAR uni7EA7
ENCODING 32423
SWIDTH 750 0
DWIDTH 6 0
BBX 5 7 0 0
BITMAP
58
88
50
B8
E8
10
E8
ENDCHAR

STARTCHAR uni7EBF
ENCODING 32447
SWIDTH 750 0
DWIDTH 6 0
BBX 5 7 0 0
BITMAP
58
B0
58
B0
D8
10
C8
ENDCHAR

STARTCHAR uni7EC8
ENCODING 32456
SWIDTH 750 0
DWIDTH 6 0
BBX 5 7 0 0
BITMAP
58
A8
50
A8
C0
10
D0
ENDCHAR

STARTCHAR uni7ECF
ENCODING 32463
SWIDTH 750 0
DWIDTH 6 0
BBX 5 7 0 0
BITMAP
78
90
68
80
F8
50
B8
ENDCHAR

STARTCHAR uni7ED3
ENCODING 32467
SWIDTH 750 0
DWIDTH 6 0
BBX 5 7 0 0
BITMAP
50
B8
50
B8
C0
68
B8
ENDCHAR

STARTCHAR uni7ED9
ENCODING 32473
SWIDTH 750 0
DWIDTH 6 0
BBX 5 7 0 0
BITMAP
50
A8
78
80
D8
68
B8
ENDCHAR

STARTCHAR uni7EDD
ENCODING 32477
SWIDTH 750 0
DWIDTH 6 0
BBX 5 7 0 0
BITMAP
58
A8
40
B8
F8
60
98
ENDCHAR

STARTCHAR uni7EE7
ENCODING 32487
SWIDTH 750 0
DWIDTH 6 0
BBX 5 7 0 0
BITMAP
68
B0
68
B0
E8
60
B8
ENDCHAR

STARTCHAR uni7EE9
ENCODING 32489
SWIDTH 750 0
DWIDTH 6 0
BBX 5 7 0 0
BITMAP
58
B8
40
B8
E8
50
A8
ENDCHAR

STARTCHAR uni7EED
ENCODING 32493
SWIDTH 750 0
DWIDTH 6 0
BBX 5 7 0 0
BITMAP
50
B8
78
B0
F8
50
A8
ENDCHAR

STARTCHAR uni7F13
ENCODING 32531
SWIDTH 750 0
DWIDTH 6 0
BBX 5 7 0 0
BITMAP
78
A8
50
B8
E8
50
A8
ENDCHAR

STARTCHAR uni7F57
ENCODING 32599
SWIDTH 750 0
DWIDTH 6 0
BBX 5 7 0 0
BITMAP
F8
A8
F8
30
C8
30
C0
ENDCHAR

STARTCHAR uni7F6E
ENCODING 32622
SWIDTH 750 0
DWIDTH 6 0
BBX 5 7 0 0
BITMAP
F8
A8
F8
50
70
50
F8
ENDCHAR

STARTCHAR uni7FA4
ENCODING 32676
SWIDTH 750 0
DWIDTH 6 0
BBX 5 7 0 0
BITMAP
E8
78
D0
78
90
F8
D0
ENDCHAR

STARTCHAR uni8001
ENCODING 32769
SWIDTH 750 0
DWIDTH 6 0
BBX 5 7 0 0
BITMAP
28
70
20
F8
70
A0
38
ENDCHAR

STARTCHAR uni8003
ENCODING 32771
SWIDTH 750 0
DWIDTH 6 0
BBX 5 7 0 0
BITMAP
28
70
F8
60
B8
08
30
ENDCHAR

STARTCHAR uni8005
ENCODING 32773
SWIDTH 750 0
DWIDTH 6 0
BBX 5 7 0 0
BITMAP
28
70
20
F8
40
B0
30
ENDCHAR

STARTCHAR uni800C
ENCODING 32780
SWIDTH 750 0
DWIDTH 6 0
BBX 5 7 0 0
BITMAP
F8
40
F8
A8
A8
A8
A8
ENDCHAR

STARTCHAR uni8033
ENCODING 32819
SWIDTH 750 0
DWIDTH 6 0
BBX 5 7 0 0
BITMAP
F8
50
70
70
58
F0
10
ENDCHAR

STARTCHAR uni8054
ENCODING 32852
SWIDTH 750 0
DWIDTH 6 0
BBX 5 7 0 0
BITMAP
E8
78
50
78
50
F0
68
ENDCHAR

STARTCHAR uni8089
ENCODING 32905
SWIDTH 750 0
DWIDTH 6 0
BBX 5 7 0 0
BITMAP
20
F8
A8
D8
A8
D8
88
ENDCHAR

STARTCHAR uni80CC
ENCODING 32972
SWIDTH 750 0
DWIDTH 6 0
BBX 5 7 0 0
BITMAP
D8
50
D8
70
70
70
50
ENDCHAR

STARTCHAR uni80FD
ENCODING 33021
SWIDTH 750 0
DWIDTH 6 0
BBX 5 7 0 0
BITMAP
58
F0
18
E0
B8
F0
B8
ENDCHAR

STARTCHAR uni8111
ENCODING 33041
SWIDTH 750 0
DWIDTH 6 0
BBX 5 7 0 0
BITMAP
D0
B8
C0
A8
D8
A8
B8
ENDCHAR

STARTCHAR uni8138
ENCODING 33080
SWIDTH 750 0
DWIDTH 6 0
BBX 5 7 0 0
BITMAP
D0
A8
F8
A0
E8
B0
B8
ENDCHAR

STARTCHAR uni817E
ENCODING 33150
SWIDTH 750 0
DWIDTH 6 0
BBX 5 7 0 0
BITMAP
E8
B8
D0
A8
F0
B8
A8
ENDCHAR

STARTCHAR uni81E3
ENCODING 33251
SWIDTH 750 0
DWIDTH 6 0
BBX 5 7 0 0
BITMAP
F8
A0
F8
88
F8
A0
F8
ENDCHAR

STARTCHAR uni81EA
ENCODING 33258
SWIDTH 750 0
DWIDTH 6 0
BBX 5 7 0 0
BITMAP
40
F8
88
E8
B8
88
F8
ENDCHAR

STARTCHAR uni81F3
ENCODING 33267
SWIDTH 750 0
DWIDTH 6 0
BBX 5 7 0 0
BITMAP
F8
50
E8
20
70
20
F8
ENDCHAR

STARTCHAR uni821F
ENCODING 33311
SWIDTH 750 0
DWIDTH 6 0
BBX 5 7 0 0
BITMAP
20
78
48
58
F8
68
98
ENDCHAR

STARTCHAR uni822C
ENCODING 33324
SWIDTH 750 0
DWIDTH 6 0
BBX 5 7 0 0
BITMAP
78
A8
C0
F8
A8
D0
A8
ENDCHAR

STARTCHAR uni8272
ENCODING 33394
SWIDTH 750 0
DWIDTH 6 0
BBX 5 7 0 0
BITMAP
70
90
F8
A8
F8
80
78
ENDCHAR

STARTCHAR uni827A
ENCODING 33402
SWIDTH 750 0
DWIDTH 6 0
BBX 5 7 0 0
BITMAP
50
F8
50
F0
20
48
78
ENDCHAR

STARTCHAR uni827E
ENCODING 33406
SWIDTH 750 0
DWIDTH 6 0
BBX 5 7 0 0
BITMAP
50
F8
50
00
50
20
D8
ENDCHAR

STARTCHAR uni8282
ENCODING 33410
SWIDTH 750 0
DWIDTH 6 0
BBX 5 7 0 0
BITMAP
50
F8
50
F8
28
28
30
ENDCHAR

STARTCHAR uni828B
ENCODING 33419
SWIDTH 750 0
DWIDTH 6 0
BBX 5 7 0 0
BITMAP
50
F8
70
20
F8
20
60
ENDCHAR

STARTCHAR uni8292
ENCODING 33426
SWIDTH 750 0
DWIDTH 6 0
BBX 5 7 0 0
BITMAP
50
F8
20
F8
40
40
78
ENDCHAR

STARTCHAR uni829D
ENCODING 33437
SWIDTH 750 0
DWIDTH 6 0
BBX 5 7 0 0
BITMAP
50
F8
20
F8
10
60
B8
ENDCHAR

STARTCHAR uni82B1
ENCODING 33457
SWIDTH 750 0
DWIDTH 6 0
BBX 5 7 0 0
BITMAP
50
F8
00
50
D8
70
58
ENDCHAR

STARTCHAR uni82CD
ENCODING 33485
SWIDTH 750 0
DWIDTH 6 0
BBX 5 7 0 0
BITMAP
50
F8
20
D8
70
50
38
ENDCHAR

STARTCHAR uni82CF
ENCODING 33487
SWIDTH 750 0
DWIDTH 6 0
BBX 5 7 0 0
BITMAP
50
F8
20
F0
D0
58
90
ENDCHAR

STARTCHAR uni82E5
ENCODING 33509
SWIDTH 750 0
DWIDTH 6 0
BBX 5 7 0 0
BITMAP
50
F8
20
78
B0
50
70
ENDCHAR

STARTCHAR uni843D
ENCODING 33853
SWIDTH 750 0
DWIDTH 6 0
BBX 5 7 0 0
BITMAP
50
F8
A0
58
B0
78
B0
ENDCHAR

STARTCHAR uni865A
ENCODING 34394
SWIDTH 750 0
DWIDTH 6 0
BBX 5 7 0 0
BITMAP
30
F8
E8
B0
C8
B0
F8
ENDCHAR

STARTCHAR uni867D
ENCODING 34429
SWIDTH 750 0
DWIDTH 6 0
BBX 5 7 0 0
BITMAP
70
50
F8
A8
F8
30
E8
ENDCHAR

STARTCHAR uni8840
ENCODING 34880
SWIDTH 750 0
DWIDTH 6 0
BBX 5 7 0 0
BITMAP
20
78
68
68
68
68
F8
ENDCHAR

STARTCHAR uni884C
ENCODING 34892
SWIDTH 750 0
DWIDTH 6 0
BBX 5 7 0 0
BITMAP
58
80
78
C8
48
48
58
ENDCHAR

STARTCHAR uni8868
ENCODING 34920
SWIDTH 750 0
DWIDTH 6 0
BBX 5 7 0 0
BITMAP
20
70
70
F8
68
D0
68
ENDCHAR

STARTCHAR uni88AB
ENCODING 34987
SWIDTH 750 0
DWIDTH 6 0
BBX 5 7 0 0
BITMAP
50
F8
70
B8
68
50
68
ENDCHAR

STARTCHAR uni88C5
ENCODING 35013
SWIDTH 750 0
DWIDTH 6 0
BBX 5 7 0 0
BITMAP
D0
78
D0
20
F8
50
E8
ENDCHAR

STARTCHAR uni897F
ENCODING 35199
SWIDTH 750 0
DWIDTH 6 0
BBX 5 7 0 0
BITMAP
F8
50
F8
D8
D8
88
F8
ENDCHAR

STARTCHAR uni8981
ENCODING 35201
SWIDTH 750 0
DWIDTH 6 0
BBX 5 7 0 0
BITMAP
F8
70
70
F8
50
70
C8
ENDCHAR

STARTCHAR uni89C1
ENCODING 35265
SWIDTH 750 0
DWIDTH 6 0
BBX 5 7 0 0
BITMAP
70
90
B0
B0
B0
68
98
ENDCHAR

STARTCHAR uni89C2
ENCODING 35266
SWIDTH 750 0
DWIDTH 6 0
BBX 5 7 0 0
BITMAP
38
E8
28
A8
50
B0
58
ENDCHAR

STARTCHAR uni89C4
ENCODING 35268
SWIDTH 750 0
DWIDTH 6 0
BBX 5 7 0 0
BITMAP
58
E8
58
F8
58
50
A8
ENDCHAR

STARTCHAR uni89C6
ENCODING 35270
SWIDTH 750 0
DWIDTH 6 0
BBX 5 7 0 0
BITMAP
B8
28
E8
68
D0
D0
68
ENDCHAR

STARTCHAR uni89C9
ENCODING 35273
SWIDTH 750 0
DWIDTH 6 0
BBX 5 7 0 0
BITMAP
50
78
88
70
70
30
D8
ENDCHAR

STARTCHAR uni89D2
ENCODING 35282
SWIDTH 750 0
DWIDTH 6 0
BBX 5 7 0 0
BITMAP
30
D0
78
68
58
68
98
ENDCHAR

STARTCHAR uni89E3
ENCODING 35299
SWIDTH 750 0
DWIDTH 6 0
BBX 5 7 0 0
BITMAP
58
A8
70
B8
D0
B8
90
ENDCHAR

STARTCHAR uni8A00
ENCODING 35328
SWIDTH 750 0
DWIDTH 6 0
BBX 5 7 0 0
BITMAP
20
F8
00
70
F8
88
F8
ENDCHAR

STARTCHAR uni8BA1
ENCODING 35745
SWIDTH 750 0
DWIDTH 6 0
BBX 5 7 0 0
BITMAP
50
10
D0
78
50
50
10
ENDCHAR

STARTCHAR uni8BA2
ENCODING 35746
SWIDTH 750 0
DWIDTH 6 0
BBX 5 7 0 0
BITMAP
B8
10
90
90
D0
90
30
ENDCHAR

STARTCHAR uni8BA4
ENCODING 35748
SWIDTH 750 0
DWIDTH 6 0
BBX 5 7 0 0
BITMAP
50
10
D0
50
68
68
28
ENDCHAR

STARTCHAR uni8BA5
ENCODING 35749
SWIDTH 750 0
DWIDTH 6 0
BBX 5 7 0 0
BITMAP
B0
30
B0
B0
B0
B0
48
ENDCHAR

STARTCHAR uni8BA8
ENCODING 35752
SWIDTH 750 0
DWIDTH 6 0
BBX 5 7 0 0
BITMAP
48
38
C8
68
58
68
58
ENDCHAR

STARTCHAR uni8BA9
ENCODING 35753
SWIDTH 750 0
DWIDTH 6 0
BBX 5 7 0 0
BITMAP
50
10
D8
50
50
50
38
ENDCHAR

STARTCHAR uni8BAD
ENCODING 35757
SWIDTH 750 0
DWIDTH 6 0
BBX 5 7 0 0
BITMAP
A8
38
B8
B8
B8
A8
48
ENDCHAR

STARTCHAR uni8BAE
ENCODING 35758
SWIDTH 750 0
DWIDTH 6 0
BBX 5 7 0 0
BITMAP
20
88
28
A8
90
A8
28
ENDCHAR

STARTCHAR uni8BAF
ENCODING 35759
SWIDTH 750 0
DWIDTH 6 0
BBX 5 7 0 0
BITMAP
78
A8
28
F8
A8
A8
28
ENDCHAR

STARTCHAR uni8BB0
ENCODING 35760
SWIDTH 750 0
DWIDTH 6 0
BBX 5 7 0 0
BITMAP
38
88
08
B8
A0
E0
38
ENDCHAR

STARTCHAR uni8BB8
ENCODING 35768
SWIDTH 750 0
DWIDTH 6 0
BBX 5 7 0 0
BITMAP
A0
78
90
F8
90
D0
10
ENDCHAR

STARTCHAR uni8BC6
ENCODING 35782
SWIDTH 750 0
DWIDTH 6 0
BBX 5 7 0 0
BITMAP
B8
28
A8
B8
C0
A8
48
ENDCHAR

STARTCHAR uni8BD5
ENCODING 35797
SWIDTH 750 0
DWIDTH 6 0
BBX 5 7 0 0
BITMAP
90
78
90
F0
B8
F0
88
ENDCHAR

STARTCHAR uni8BDD
ENCODING 35805
SWIDTH 750 0
DWIDTH 6 0
BBX 5 7 0 0
BITMAP
38
90
78
90
B8
E8
38
ENDCHAR

STARTCHAR uni8BE5
ENCODING 35813
SWIDTH 750 0
DWIDTH 6 0
BBX 5 7 0 0
BITMAP
90
78
A8
90
A8
D0
A8
ENDCHAR

STARTCHAR uni8BED
ENCODING 35821
SWIDTH 750 0
DWIDTH 6 0
BBX 5 7 0 0
BITMAP
38
90
78
A8
F8
B0
30
ENDCHAR

STARTCHAR uni8BF4
ENCODING 35828
SWIDTH 750 0
DWIDTH 6 0
BBX 5 7 0 0
BITMAP
A8
78
C8
F8
B0
B0
58
ENDCHAR

STARTCHAR uni8C01
ENCODING 35841
SWIDTH 750 0
DWIDTH 6 0
BBX 5 7 0 0
BITMAP
B0
78
D0
F8
D0
78
40
ENDCHAR

STARTCHAR uni8C22
ENCODING 35874
SWIDTH 750 0
DWIDTH 6 0
BBX 5 7 0 0
BITMAP
A8
58
68
D8
E8
A8
58
ENDCHAR

STARTCHAR uni8D1D
ENCODING 36125
SWIDTH 750 0
DWIDTH 6 0
BBX 5 7 0 0
BITMAP
F8
88
A8
A8
A8
50
88
ENDCHAR

STARTCHAR uni8D28
ENCODING 36136
SWIDTH 750 0
DWIDTH 6 0
BBX 5 7 0 0
BITMAP
78
90
F8
B8
A8
90
A8
ENDCHAR

STARTCHAR uni8D5B
ENCODING 36187
SWIDTH 750 0
DWIDTH 6 0
BBX 5 7 0 0
BITMAP
20
F8
B8
70
D8
20
50
ENDCHAR

STARTCHAR uni8D70
ENCODING 36208
SWIDTH 750 0
DWIDTH 6 0
BBX 5 7 0 0
BITMAP
20
70
F8
20
70
60
98
ENDCHAR

STARTCHAR uni8D77
ENCODING 36215
SWIDTH 750 0
DWIDTH 6 0
BBX 5 7 0 0
BITMAP
58
E8
58
F0
58
C0
B8
ENDCHAR

STARTCHAR uni8D85
ENCODING 36229
SWIDTH 750 0
DWIDTH 6 0
BBX 5 7 0 0
BITMAP
78
D8
68
C0
78
C8
B8
ENDCHAR

STARTCHAR uni8D8A
ENCODING 36234
SWIDTH 750 0
DWIDTH 6 0
BBX 5 7 0 0
BITMAP
50
F8
70
F0
68
C0
B8
ENDCHAR

STARTCHAR uni8DB3
ENCODING 36275
SWIDTH 750 0
DWIDTH 6 0
BBX 5 7 0 0
BITMAP
F8
88
F8
20
B8
E0
98
ENDCHAR

STARTCHAR uni8DD1
ENCODING 36305
SWIDTH 750 0
DWIDTH 6 0
BBX 5 7 0 0
BITMAP
D0
B8
C8
70
F0
E0
B8
ENDCHAR

STARTCHAR uni8DDF
ENCODING 36319
SWIDTH 750 0
DWIDTH 6 0
BBX 5 7 0 0
BITMAP
78
A8
F8
60
E8
F0
A8
ENDCHAR

STARTCHAR uni8DEF
ENCODING 36335
SWIDTH 750 0
DWIDTH 6 0
BBX 5 7 0 0
BITMAP
D8
A8
D0
68
F8
E8
B8
ENDCHAR

STARTCHAR uni8EAB
ENCODING 36523
SWIDTH 750 0
DWIDTH 6 0
BBX 5 7 0 0
BITMAP
20
70
70
58
F0
30
D0
ENDCHAR

STARTCHAR uni8F66
ENCODING 36710
SWIDTH 750 0
DWIDTH 6 0
BBX 5 7 0 0
BITMAP
20
F8
50
78
10
F8
10
ENDCHAR

STARTCHAR uni8F67
ENCODING 36711
SWIDTH 750 0
DWIDTH 6 0
BBX 5 7 0 0
BITMAP
50
F0
90
D0
70
D0
58
ENDCHAR

STARTCHAR uni8F6C
ENCODING 36716
SWIDTH 750 0
DWIDTH 6 0
BBX 5 7 0 0
BITMAP
90
F8
90
F8
50
C8
50
ENDCHAR

STARTCHAR uni8F70
ENCODING 36720
SWIDTH 750 0
DWIDTH 6 0
BBX 5 7 0 0
BITMAP
70
A0
F8
20
D8
50
A8
ENDCHAR

STARTCHAR uni8F7B
ENCODING 36731
SWIDTH 750 0
DWIDTH 6 0
BBX 5 7 0 0
BITMAP
B8
D0
A8
C0
78
D0
78
ENDCHAR

STARTCHAR uni8FB9
ENCODING 36793
SWIDTH 750 0
DWIDTH 6 0
BBX 5 7 0 0
BITMAP
A0
78
A8
A8
C8
80
78
ENDCHAR

STARTCHAR uni8FBD
ENCODING 36797
SWIDTH 750 0
DWIDTH 6 0
BBX 5 7 0 0
BITMAP
B8
08
90
90
B0
80
78
ENDCHAR

STARTCHAR uni8FBE
ENCODING 36798
SWIDTH 750 0
DWIDTH 6 0
BBX 5 7 0 0
BITMAP
90
38
90
90
A8
80
78
ENDCHAR

STARTCHAR uni8FC2
ENCODING 36802
SWIDTH 750 0
DWIDTH 6 0
BBX 5 7 0 0
BITMAP
B8
10
B8
90
90
B0
78
ENDCHAR

STARTCHAR uni8FC7
ENCODING 36807
SWIDTH 750 0
DWIDTH 6 0
BBX 5 7 0 0
BITMAP
90
78
90
B0
90
80
78
ENDCHAR

STARTCHAR uni8FCE
ENCODING 36814
SWIDTH 750 0
DWIDTH 6 0
BBX 5 7 0 0
BITMAP
A0
58
D8
D8
F0
90
78
ENDCHAR

STARTCHAR uni8FD0
ENCODING 36816
SWIDTH 750 0
DWIDTH 6 0
BBX 5 7 0 0
BITMAP
B8
00
78
A8
B8
80
78
ENDCHAR

STARTCHAR uni8FD1
ENCODING 36817
SWIDTH 750 0
DWIDTH 6 0
BBX 5 7 0 0
BITMAP
B8
20
B8
A8
C8
80
78
ENDCHAR

STARTCHAR uni8FD8
ENCODING 36824
SWIDTH 750 0
DWIDTH 6 0
BBX 5 7 0 0
BITMAP
B8
10
B0
D8
90
80
78
ENDCHAR

STARTCHAR uni8FD9
ENCODING 36825
SWIDTH 750 0
DWIDTH 6 0
BBX 5 7 0 0
BITMAP
90
78
A8
90
A8
80
78
ENDCHAR

STARTCHAR uni8FDB
ENCODING 36827
SWIDTH 750 0
DWIDTH 6 0
BBX 5 7 0 0
BITMAP
B0
78
B0
F8
B0
D0
78
ENDCHAR

STARTCHAR uni8FDC
ENCODING 36828
SWIDTH 750 0
DWIDTH 6 0
BBX 5 7 0 0
BITMAP
B8
00
F8
B0
D8
80
78
ENDCHAR

STARTCHAR uni8FDE
ENCODING 36830
SWIDTH 750 0
DWIDTH 6 0
BBX 5 7 0 0
BITMAP
90
78
A0
B0
F8
90
78
ENDCHAR

STARTCHAR uni8FFD
ENCODING 36861
SWIDTH 750 0
DWIDTH 6 0
BBX 5 7 0 0
BITMAP
90
28
B8
A0
B8
A8
78
ENDCHAR

STARTCHAR uni9000
ENCODING 36864
SWIDTH 750 0
DWIDTH 6 0
BBX 5 7 0 0
BITMAP
B8
28
B8
A8
B0
A8
70
ENDCHAR

STARTCHAR uni9001
ENCODING 36865
SWIDTH 750 0
DWIDTH 6 0
BBX 5 7 0 0
BITMAP
A8
78
90
F8
90
A8
78
ENDCHAR

STARTCHAR uni9009
ENCODING 36873
SWIDTH 750 0
DWIDTH 6 0
BBX 5 7 0 0
BITMAP
B0
38
50
B8
90
A8
78
ENDCHAR

STARTCHAR uni901A
ENCODING 36890
SWIDTH 750 0
DWIDTH 6 0
BBX 5 7 0 0
BITMAP
B8
10
A8
B8
B8
A8
78
ENDCHAR

STARTCHAR uni901F
ENCODING 36895
SWIDTH 750 0
DWIDTH 6 0
BBX 5 7 0 0
BITMAP
90
78
38
90
D8
90
78
ENDCHAR

STARTCHAR uni9020
ENCODING 36896
SWIDTH 750 0
DWIDTH 6 0
BBX 5 7 0 0
BITMAP
B0
38
90
F8
A8
B0
78
ENDCHAR

STARTCHAR uni9047
ENCODING 36935
SWIDTH 750 0
DWIDTH 6 0
BBX 5 7 0 0
BITMAP
B8
28
90
B8
A8
80
78
ENDCHAR

STARTCHAR uni9053
ENCODING 36947
SWIDTH 750 0
DWIDTH 6 0
BBX 5 7 0 0
BITMAP
A8
78
10
A8
B8
A8
78
ENDCHAR

STARTCHAR uni9068
ENCODING 36968
SWIDTH 750 0
DWIDTH 6 0
BBX 5 7 0 0
BITMAP
90
58
68
E8
D0
A8
78
ENDCHAR

STARTCHAR uni9093
ENCODING 37011
SWIDTH 750 0
DWIDTH 6 0
BBX 5 7 0 0
BITMAP
18
F8
30
B8
58
B8
10
ENDCHAR

STARTCHAR uni90A3
ENCODING 37027
SWIDTH 750 0
DWIDTH 6 0
BBX 5 7 0 0
BITMAP
F8
58
F0
58
F8
50
B0
ENDCHAR

STARTCHAR uni90A6
ENCODING 37030
SWIDTH 750 0
DWIDTH 6 0
BBX 5 7 0 0
BITMAP
58
F8
F0
58
F8
58
90
ENDCHAR

STARTCHAR uni90E8
ENCODING 37096
SWIDTH 750 0
DWIDTH 6 0
BBX 5 7 0 0
BITMAP
58
F8
B0
F8
18
D0
D0
ENDCHAR

STARTCHAR uni90FD
ENCODING 37117
SWIDTH 750 0
DWIDTH 6 0
BBX 5 7 0 0
BITMAP
58
F8
70
F8
58
F0
70
ENDCHAR

STARTCHAR uni91CC
ENCODING 37324
SWIDTH 750 0
DWIDTH 6 0
BBX 5 7 0 0
BITMAP
F8
A8
F8
A8
F8
20
F8
ENDCHAR

STARTCHAR uni91CD
ENCODING 37325
SWIDTH 750 0
DWIDTH 6 0
BBX 5 7 0 0
BITMAP
10
60
F8
70
70
20
F8
ENDCHAR

STARTCHAR uni91CF
ENCODING 37327
SWIDTH 750 0
DWIDTH 6 0
BBX 5 7 0 0
BITMAP
70
50
F8
70
70
20
F8
ENDCHAR

STARTCHAR uni91D1
ENCODING 37329
SWIDTH 750 0
DWIDTH 6 0
BBX 5 7 0 0
BITMAP
20
50
F8
20
F8
70
F8
ENDCHAR

STARTCHAR uni94B1
ENCODING 38065
SWIDTH 750 0
DWIDTH 6 0
BBX 5 7 0 0
BITMAP
50
B8
10
F8
58
D0
68
ENDCHAR

STARTCHAR uni9519
ENCODING 38169
SWIDTH 750 0
DWIDTH 6 0
BBX 5 7 0 0
BITMAP
68
B8
E8
78
C0
58
78
ENDCHAR

STARTCHAR uni957F
ENCODING 38271
SWIDTH 750 0
DWIDTH 6 0
BBX 5 7 0 0
BITMAP
48
50
60
F8
50
50
68
ENDCHAR

STARTCHAR uni95E8
ENCODING 38376
SWIDTH 750 0
DWIDTH 6 0
BBX 5 7 0 0
BITMAP
B8
08
88
88
88
88
98
ENDCHAR

STARTCHAR uni95EA
ENCODING 38378
SWIDTH 750 0
DWIDTH 6 0
BBX 5 7 0 0
BITMAP
B8
08
A8
A8
D8
88
98
ENDCHAR

STARTCHAR uni95EE
ENCODING 38382
SWIDTH 750 0
DWIDTH 6 0
BBX 5 7 0 0
BITMAP
B8
08
B8
D8
D8
E8
88
ENDCHAR

STARTCHAR uni95F4
ENCODING 38388
SWIDTH 750 0
DWIDTH 6 0
BBX 5 7 0 0
BITMAP
B8
08
B8
D8
F8
D8
A8
ENDCHAR

STARTCHAR uni9614
ENCODING 38420
SWIDTH 750 0
DWIDTH 6 0
BBX 5 7 0 0
BITMAP
B8
08
D8
A8
F8
B8
D8
ENDCHAR

STARTCHAR uni961F
ENCODING 38431
SWIDTH 750 0
DWIDTH 6 0
BBX 5 7 0 0
BITMAP
D0
D0
90
D0
D0
A8
A8
ENDCHAR

STARTCHAR uni9633
ENCODING 38451
SWIDTH 750 0
DWIDTH 6 0
BBX 5 7 0 0
BITMAP
D8
E8
A8
F8
E8
A8
B8
ENDCHAR

STARTCHAR uni9635
ENCODING 38453
SWIDTH 750 0
DWIDTH 6 0
BBX 5 7 0 0
BITMAP
D0
F8
A0
F8
D0
B8
90
ENDCHAR

STARTCHAR uni963F
ENCODING 38463
SWIDTH 750 0
DWIDTH 6 0
BBX 5 7 0 0
BITMAP
F8
48
B8
E8
D8
88
98
ENDCHAR

STARTCHAR uni9648
ENCODING 38472
SWIDTH 750 0
DWIDTH 6 0
BBX 5 7 0 0
BITMAP
D0
F8
B0
F8
D0
B8
B0
ENDCHAR

STARTCHAR uni9664
ENCODING 38500
SWIDTH 750 0
DWIDTH 6 0
BBX 5 7 0 0
BITMAP
D0
E8
B8
D0
F8
90
D8
ENDCHAR

STARTCHAR uni9669
ENCODING 38505
SWIDTH 750 0
DWIDTH 6 0
BBX 5 7 0 0
BITMAP
D0
E8
B8
C0
E8
90
B8
ENDCHAR

STARTCHAR uni968F
ENCODING 38543
SWIDTH 750 0
DWIDTH 6 0
BBX 5 7 0 0
BITMAP
D0
F8
A0
D8
D8
A8
B8
ENDCHAR

STARTCHAR uni96BE
ENCODING 38590
SWIDTH 750 0
DWIDTH 6 0
BBX 5 7 0 0
BITMAP
10
F8
30
B8
50
B0
38
ENDCHAR

STARTCHAR uni96EA
ENCODING 38634
SWIDTH 750 0
DWIDTH 6 0
BBX 5 7 0 0
BITMAP
70
F8
A8
00
70
10
70
ENDCHAR

STARTCHAR uni96F7
ENCODING 38647
SWIDTH 750 0
DWIDTH 6 0
BBX 5 7 0 0
BITMAP
70
F8
A8
00
70
70
70
ENDCHAR

STARTCHAR uni9700
ENCODING 38656
SWIDTH 750 0
DWIDTH 6 0
BBX 5 7 0 0
BITMAP
70
F8
A8
70
F8
E8
E8
ENDCHAR

STARTCHAR uni9732
ENCODING 38706
SWIDTH 750 0
DWIDTH 6 0
BBX 5 7 0 0
BITMAP
70
F8
A8
D0
E8
58
D8
ENDCHAR

STARTCHAR uni9752
ENCODING 38738
SWIDTH 750 0
DWIDTH 6 0
BBX 5 7 0 0
BITMAP
20
70
F8
70
70
50
90
ENDCHAR

STARTCHAR uni9759
ENCODING 38745
SWIDTH 750 0
DWIDTH 6 0
BBX 5 7 0 0
BITMAP
58
E8
40
F8
B8
F8
B0
ENDCHAR

STARTCHAR uni975E
ENCODING 38750
SWIDTH 750 0
DWIDTH 6 0
BBX 5 7 0 0
BITMAP
50
D8
50
D8
50
D8
50
ENDCHAR

STARTCHAR uni9760
ENCODING 38752
SWIDTH 750 0
DWIDTH 6 0
BBX 5 7 0 0
BITMAP
A0
F0
F8
70
D8
D8
50
ENDCHAR

STARTCHAR uni9762
ENCODING 38754
SWIDTH 750 0
DWIDTH 6 0
BBX 5 7 0 0
BITMAP
F8
40
F8
A8
B8
A8
F8
ENDCHAR

STARTCHAR uni97F3
ENCODING 38899
SWIDTH 750 0
DWIDTH 6 0
BBX 5 7 0 0
BITMAP
20
F8
50
F8
70
70
70
ENDCHAR

STARTCHAR uni9875
ENCODING 39029
SWIDTH 750 0
DWIDTH 6 0
BBX 5 7 0 0
BITMAP
F8
20
70
50
50
20
50
ENDCHAR

STARTCHAR uni9876
ENCODING 39030
SWIDTH 750 0
DWIDTH 6 0
BBX 5 7 0 0
BITMAP
F8
50
78
68
68
50
E8
ENDCHAR

STARTCHAR uni987F
ENCODING 39039
SWIDTH 750 0
DWIDTH 6 0
BBX 5 7 0 0
BITMAP
78
D0
78
A8
E8
50
68
ENDCHAR

STARTCHAR uni9886
ENCODING 39046
SWIDTH 750 0
DWIDTH 6 0
BBX 5 7 0 0
BITMAP
78
90
58
E8
28
50
28
ENDCHAR

STARTCHAR uni9898
ENCODING 39064
SWIDTH 750 0
DWIDTH 6 0
BBX 5 7 0 0
BITMAP
F8
D0
38
E8
50
E8
B8
ENDCHAR

STARTCHAR uni98CE
ENCODING 39118
SWIDTH 750 0
DWIDTH 6 0
BBX 5 7 0 0
BITMAP
F0
90
B0
D0
B0
90
88
ENDCHAR

STARTCHAR uni98DE
ENCODING 39134
SWIDTH 750 0
DWIDTH 6 0
BBX 5 7 0 0
BITMAP
E0
28
30
28
20
28
10
ENDCHAR

STARTCHAR uni9965
ENCODING 39269
SWIDTH 750 0
DWIDTH 6 0
BBX 5 7 0 0
BITMAP
50
70
90
50
70
50
28
ENDCHAR

STARTCHAR uni9A6C
ENCODING 39532
SWIDTH 750 0
DWIDTH 6 0
BBX 5 7 0 0
BITMAP
F0
50
50
78
08
E8
18
ENDCHAR

STARTCHAR uni9A70
ENCODING 39536
SWIDTH 750 0
DWIDTH 6 0
BBX 5 7 0 0
BITMAP
D0
50
D8
F8
30
A0
58
ENDCHAR

STARTCHAR uni9A84
ENCODING 39556
SWIDTH 750 0
DWIDTH 6 0
BBX 5 7 0 0
BITMAP
C8
70
F8
D0
28
A8
48
ENDCHAR

STARTCHAR uni9A8B
ENCODING 39563
SWIDTH 750 0
DWIDTH 6 0
BBX 5 7 0 0
BITMAP
D0
78
B8
F8
20
B8
48
ENDCHAR

STARTCHAR uni9AD8
ENCODING 39640
SWIDTH 750 0
DWIDTH 6 0
BBX 5 7 0 0
BITMAP
20
F8
50
70
F8
88
A8
ENDCHAR

STARTCHAR uni9B54
ENCODING 39764
SWIDTH 750 0
DWIDTH 6 0
BBX 5 7 0 0
BITMAP
20
F8
D0
F8
F0
70
98
ENDCHAR

STARTCHAR uni9E1F
ENCODING 40479
SWIDTH 750 0
DWIDTH 6 0
BBX 5 7 0 0
BITMAP
70
D0
B0
F8
08
E8
10
ENDCHAR

STARTCHAR uni9EC4
ENCODING 40644
SWIDTH 750 0
DWIDTH 6 0
BBX 5 7 0 0
BITMAP
50
F8
50
F8
70
70
88
ENDCHAR

STARTCHAR uni9ED1
ENCODING 40657
SWIDTH 750 0
DWIDTH 6 0
BBX 5 7 0 0
BITMAP
70
50
20
70
F8
00
A8
ENDCHAR

STARTCHAR uni9ED8
ENCODING 40664
SWIDTH 750 0
DWIDTH 6 0
BBX 5 7 0 0
BITMAP
D8
D0
B8
50
D0
08
A8
ENDCHAR

STARTCHAR uni9F99
ENCODING 40857
SWIDTH 750 0
DWIDTH 6 0
BBX 5 7 0 0
BITMAP
50
F8
40
68
70
68
B8
ENDCHAR
ENDFONT
